<?xml version="1.0" standalone="no"?>
<!DOCTYPE svg PUBLIC "-//W3C//DTD SVG 1.1//EN" "http://www.w3.org/Graphics/SVG/1.1/DTD/svg11.dtd" >
<!--
2013-9-30: Created.
-->
<svg>
<metadata>
Created by iconfont
</metadata>
<defs>

<font id="iconfont" horiz-adv-x="1024" >
  <font-face
    font-family="iconfont"
    font-weight="500"
    font-stretch="normal"
    units-per-em="1024"
    ascent="896"
    descent="-128"
  />
    <missing-glyph />
    
    <glyph glyph-name="meirong" unicode="&#58880;" d="M811.008 794.624q61.44-52.224 97.28-131.072t35.84-187.392q0-79.872-20.48-161.28t-56.32-156.16l-29.696 39.936q-10.24 10.24-20.48 1.024-9.216-12.288-1.024-23.552l36.864-46.08q-30.72-55.296-69.12-102.912t-83.456-81.92-95.232-53.76-103.424-19.456q-52.224 0-101.888 18.944t-93.696 52.224-82.432 79.36-69.12 100.352l41.984 46.08q4.096 4.096 4.096 10.24t-5.12 10.24q-4.096 4.096-10.24 4.096t-10.24-5.12l-34.816-36.864q-37.888 75.776-59.392 159.232t-21.504 165.376q0 108.544 35.84 187.392t98.304 131.072l32.768-35.84q5.12-4.096 10.752-4.608t10.752 4.608q5.12 4.096 5.632 9.728t-3.584 10.752l-32.768 34.816q58.368 40.96 130.56 61.44t154.112 20.48q82.944 0 155.136-20.48t130.56-63.488l-31.744-39.936q-8.192-12.288 0-23.552 12.288-9.216 20.48 1.024zM285.696 413.696q44.032 0 74.752 22.016t30.72 53.76q0 30.72-30.72 52.736t-74.752 22.016-74.752-22.016-30.72-52.736q0-31.744 30.72-53.76t74.752-22.016zM496.64 52.224q44.032 0 74.752 13.312t30.72 31.744q0 19.456-30.72 32.256t-74.752 12.8-74.752-12.8-30.72-32.256q0-18.432 30.72-31.744t74.752-13.312zM707.584 413.696q44.032 0 74.752 22.016t30.72 53.76q0 30.72-30.72 52.736t-74.752 22.016-74.752-22.016-30.72-52.736q0-31.744 30.72-53.76t74.752-22.016z"  horiz-adv-x="1024" />

    
    <glyph glyph-name="liebiao" unicode="&#58881;" d="M187.392 825.344q28.672 0 48.64-19.456t19.968-48.128l0-52.224q0-28.672-19.968-48.64t-48.64-19.968l-54.272 0q-27.648 0-47.616 19.968t-19.968 48.64l0 52.224q0 28.672 19.968 48.128t47.616 19.456l54.272 0zM889.856 825.344q27.648 0 47.616-19.456t19.968-48.128l0-52.224q0-28.672-19.968-48.64t-47.616-19.968l-437.248 0q-28.672 0-48.64 19.968t-19.968 48.64l0 52.224q0 28.672 19.968 48.128t48.64 19.456l437.248 0zM187.392 506.88q28.672 0 48.64-19.968t19.968-48.64l0-52.224q0-27.648-19.968-47.616t-48.64-19.968l-54.272 0q-27.648 0-47.616 19.968t-19.968 47.616l0 52.224q0 28.672 19.968 48.64t47.616 19.968l54.272 0zM889.856 506.88q27.648 0 47.616-19.968t19.968-48.64l0-52.224q0-27.648-19.968-47.616t-47.616-19.968l-437.248 0q-28.672 0-48.64 19.968t-19.968 47.616l0 52.224q0 28.672 19.968 48.64t48.64 19.968l437.248 0zM187.392 187.392q28.672 0 48.64-19.968t19.968-47.616l0-52.224q0-28.672-19.968-48.64t-48.64-19.968l-54.272 0q-27.648 0-47.616 19.968t-19.968 48.64l0 52.224q0 27.648 19.968 47.616t47.616 19.968l54.272 0zM889.856 187.392q27.648 0 47.616-19.968t19.968-47.616l0-52.224q0-28.672-19.968-48.64t-47.616-19.968l-437.248 0q-28.672 0-48.64 19.968t-19.968 48.64l0 52.224q0 27.648 19.968 47.616t48.64 19.968l437.248 0z"  horiz-adv-x="1024" />

    
    <glyph glyph-name="gonggao" unicode="&#58882;" d="M464.257692-32.830477c-30.464081 27.469632-62.710836 56.138578-96.757662 86.001723-34.040686 29.858028-65.694922 57.332776-94.963731 82.415035-34.040686 28.667923-68.082396 57.034994-102.129222 85.104283-6.569902-0.595564-13.139803-0.89744-19.705611-0.89744-5.376676-0.594541-11.050124-0.892323-17.026483-0.892323l-15.226412 0c-16.129006 0-29.264716 4.925173-39.417363 14.780635-10.15367 9.855462-15.232552 21.648043-15.232552 35.383882L63.798656 494.816898l0.897477 0-0.897477 0.89744c0 16.72287 5.227267 30.457686 15.677709 41.209564 10.450442 10.747785 23.442882 16.123212 38.972206 16.123212l51.062053 0c54.947709 46.586015 104.819607 88.390119 149.613646 125.417431 19.111045 16.124236 37.925319 31.801287 56.437706 47.031153 18.517503 15.231913 35.240051 29.115108 50.169692 41.656749 14.934757 12.540617 27.475901 22.994714 37.628548 31.354102 10.152647 8.362458 16.421684 13.438057 18.814274 15.230889 17.91782 13.141298 32.400257 19.111267 43.445265 17.917068 11.051147-1.194198 19.711751-6.569626 25.984882-16.127306 6.268014-9.552563 10.597804-21.197788 12.987324-34.936697 2.388497-13.735839 3.582745-26.276457 3.582745-37.622876l0-725.628472c0-11.347442-2.086609-23.441898-6.268014-36.283368-4.182428-12.8384-10.603944-22.991644-19.260454-30.458709-8.661627-7.467065-19.562342-10.597359-32.704192-9.404184C496.807359-57.614953 481.57583-48.957783 464.257692-32.830477zM753.623991 499.295909c12.541144-17.316387 22.545405-34.787294 30.012784-52.40658 7.462262-17.615193 11.19851-38.97057 11.19851-64.052828 0-23.887037-3.884633-45.3867-11.649807-64.501036-7.76415-19.111267-17.614909-36.428677-29.561487-51.957349-4.776994-6.569626-9.855876-12.391215-15.232552-17.469883-5.370536-5.073552-12.243349-7.611352-20.603088-7.611352-10.75233 0-19.859114 3.880377-27.322399 11.643178-7.467379 7.764847-11.19851 17.020652-11.19851 27.77253 0 4.776793 0.891337 9.552563 2.685268 14.334473l-0.897477 0c2.98818 6.569626 6.569902 12.8384 10.75233 18.809391 4.181405 5.975085 8.21033 12.094456 12.094964 18.367323 3.879517 6.268774 7.164467 13.438057 9.849736 21.49864 2.691408 8.06263 4.034042 17.768689 4.034042 29.115108 0 10.751878-1.342634 20.156062-4.034042 28.218692-2.685268 8.061606-5.971242 15.379269-9.849736 21.948895-3.884633 6.569626-7.913559 12.8384-12.094964 18.813484-4.182428 5.970992-7.467379 12.243859-9.855876 18.809391-1.793931 4.181229-2.685268 8.958022-2.685268 14.334473 0 10.750855 3.731131 20.007683 11.19851 27.770484 7.462262 7.764847 16.569046 11.645225 27.322399 11.645225 8.359739 0 15.232552-2.537799 20.603088-7.611352C743.768115 511.689171 748.846997 505.866558 753.623991 499.295909zM803.793683 97.065965c-7.170607-5.376451-15.529323-8.061606-25.087404-8.061606-11.942485 0-22.243517 4.330632-30.904121 12.987802-8.661627 8.66024-12.992441 18.961864-12.992441 30.90794 0 13.140275 5.078882 24.185842 15.232552 33.143864 0.594566 0.598634 1.193225 1.044796 1.788814 1.346671 0.600706 0.297782 1.195272 0.743944 1.793931 1.342578l0.897477 0.89744c16.722548 11.346419 32.252895 24.784476 46.58183 40.313148 14.335075 15.528672 26.876219 32.399921 37.628548 50.613748 10.75233 18.21485 19.111045 37.622876 25.082288 58.229193 5.975336 20.603247 8.958398 41.953508 8.958398 64.050782 0 44.792159-11.345872 85.704964-34.040686 122.732276s-51.067169 67.48602-85.107855 91.373057c-12.541144 8.958022-18.814274 20.904099-18.814274 35.833113 0 11.946077 4.330814 22.246677 12.992441 30.90794 8.660604 8.661264 18.96266 12.987802 30.904121 12.987802 10.15367 0 19.112069-3.28072 26.876219-9.850345 22.100248-15.528672 42.70743-33.594119 61.819499-54.200436 19.111045-20.603247 35.532729-42.999326 49.273238-67.188238 13.735392-24.185842 24.483628-50.015114 32.246755-77.489862 7.765173-27.469632 11.649807-55.840796 11.649807-85.104283 0-29.863145-3.884633-58.525951-11.649807-86.0007-7.76415-27.470655-18.660772-53.449329-32.698052-77.936023-14.033187-24.486694-30.60735-47.031153-49.718395-67.638493C847.39245 130.660084 826.487474 112.593614 803.793683 97.065965z"  horiz-adv-x="1024" />

    
    <glyph glyph-name="jingshi" unicode="&#58883;" d="M527.521137 847.441051c-246.731527 0-446.746141-200.00622-446.746141-446.727391s200.014615-446.727391 446.746141-446.727391 446.746141 200.00622 446.746141 446.727391S774.252663 847.441051 527.521137 847.441051zM527.521137 105.184877c-31.452636 0-56.950404 25.496697-56.950404 56.948013s25.497767 56.948013 56.950404 56.948013 56.950404-25.496697 56.950404-56.948013S558.973773 105.184877 527.521137 105.184877zM584.47154 346.812029c0-31.451316-25.497767-56.948013-56.950404-56.948013s-56.950404 25.496697-56.950404 56.948013L470.570733 589.861578c0 31.450293 25.497767 56.94699 56.950404 56.94699s56.950404-25.496697 56.950404-56.948013L584.47154 346.812029z"  horiz-adv-x="1024" />

    
    <glyph glyph-name="lianjie" unicode="&#58884;" d="M607.934444 478.143147c-6.179746 6.1777-12.766768 11.746532-19.554358 16.910135l-0.01228-0.011256c-6.986111 6.719028-16.47216 10.857279-26.930349 10.857279-21.464871 0-38.864146-17.400299-38.864146-38.864146 0-9.497305 3.411703-18.196431 9.071609-24.947182l-0.001023 0c0.001023-0.001023 0.00307-0.00307 0.005117-0.004093 2.718925-3.242857 5.953595-6.03853 9.585309-8.251941 3.664459-3.021823 7.261381-5.997598 10.624988-9.361205l3.203972-3.204995c40.279379-40.229237 28.254507-109.539812-12.024871-149.820214L371.157763 99.616044c-40.278355-40.229237-105.761766-40.229237-146.042167 0l-3.229554 3.231601c-40.281425 40.278355-40.281425 105.809861 0 145.991002l75.93546 75.909877c9.742898 7.733125 15.997346 19.668968 15.997346 33.072233 0 23.312962-18.898419 42.211381-42.211381 42.211381-8.797363 0-16.963347-2.693342-23.725354-7.297197-0.021489 0.045025-0.044002 0.088004-0.066515 0.134053l-0.809435-0.757247c-2.989077-2.148943-5.691629-4.669346-8.025791-7.510044l-78.913281-73.841775c-74.178443-74.229608-74.178443-195.632609 0-269.758863l3.203972-3.202948c74.178443-74.127278 195.529255-74.127278 269.707698 0l171.829484 171.880649c74.076112 74.17435 80.357166 191.184297 6.282077 265.311575L607.934444 478.143147zM855.61957 730.195743l-3.203972 3.203972c-74.17742 74.178443-195.528232 74.178443-269.706675 0L410.87944 561.520089c-74.178443-74.178443-78.263481-181.296089-4.085038-255.522628l3.152806-3.104711c3.368724-3.367701 6.865361-6.54302 10.434653-9.588379 2.583848-2.885723 5.618974-5.355985 8.992815-7.309476 0.025583-0.020466 0.052189-0.041956 0.077771-0.062422l0.011256 0.010233c5.377474-3.092431 11.608386-4.870938 18.257829-4.870938 20.263509 0 36.68962 16.428158 36.68962 36.68962 0 5.719258-1.309832 11.132548-3.645017 15.95846l0 0c-4.850471 10.891048-13.930267 17.521049-20.210297 23.802102l-3.15383 3.102664c-40.278355 40.278355-24.982998 98.79612 15.295358 139.074476l171.930791 171.830507c40.179095 40.280402 105.685018 40.280402 145.965419 0l3.206018-3.152806c40.279379-40.281425 40.279379-105.838513 0-146.06775l-75.686796-75.737962c-10.296507-7.628748-16.97358-19.865443-16.97358-33.662681 0-23.12365 18.745946-41.87062 41.87062-41.87062 8.048303 0 15.563464 2.275833 21.944801 6.211469 0.048095-0.081864 0.093121-0.157589 0.141216-0.240477l1.173732 1.083681c3.616364 2.421142 6.828522 5.393847 9.529027 8.792247l79.766718 73.603345C929.798013 534.665465 929.798013 656.018324 855.61957 730.195743z"  horiz-adv-x="1024" />

    
    <glyph glyph-name="daishouhuo" unicode="&#58885;" d="M807.990806 714.570881 378.768091 714.570881c-41.024345 0-74.258261-33.122375-74.258261-73.933873l0-122.296347-158.666696-91.373057 0.191358-0.323365c-4.329609-3.148713-7.316639-8.011464-7.326872-13.765515l0-248.28376 0-0.039909c0-10.737552 7.79043-19.498076 17.428951-19.498076 9.627265 0 17.417695 8.760524 17.417695 19.498076l0 0.039909L173.554266 402.928095l156.941402 90.385567c7.589862 2.684132 13.08911 9.688663 13.08911 18.164708 0 0.040932-0.00921 0.061398-0.00921 0.081864l0.00921 0 0 125.181047c0 21.475104 17.509792 38.895869 39.087227 38.895869l421.401586 0c21.598924 0 39.076994-17.419741 39.076994-38.895869l0-412.562267c0-0.039909 0-0.079818 0-0.079818 0-10.739599 8.760524-19.458167 19.559475-19.458167 10.797927 0 19.537985 8.718569 19.537985 19.458167 0 0 0 0.039909 0 0.079818L882.248044 640.638031C882.248044 681.449529 849.005942 714.570881 807.990806 714.570881zM276.847817 347.018737c-10.314926-0.038886-18.700921-8.396227-18.700921-18.649755 0-10.254551 8.385994-18.61087 18.720364-18.61087 0.061398 0 0.141216 0.040932 0.201591 0.040932l98.366332 0c39.652092-0.201591 37.392632 37.21867 37.392632 37.21867l0 77.487815c0 10.273994-8.376785 18.608823-18.691711 18.608823-10.334369 0-18.709107-8.334829-18.709107-18.608823 0-0.040932 0.008186-0.081864 0.008186-0.121773l0-77.366042L276.847817 347.017714zM718.09131 246.381689c-49.552579 0-90.121554-37.21867-96.118128-84.974323l-196.197474 0.079818c-6.034437 47.714721-46.596248 84.894506-96.127338 84.894506-53.668317 0-97.347119-43.476187-97.347119-96.92347 0-53.40635 43.678802-96.883561 97.347119-96.883561 46.454008 0 85.309968 32.615838 94.936209 76.012208l198.61964-0.079818c9.668197-43.355437 48.486294-75.93239 94.888114-75.93239 53.689806 0 97.346095 43.476187 97.346095 96.883561C815.437405 202.904479 771.781116 246.381689 718.09131 246.381689zM329.64837 93.62868c-30.921243 0-56.081273 25.068955-56.081273 55.82954 0 30.801517 25.159006 55.828516 56.081273 55.828516s56.092529-25.027 56.092529-55.828516C385.7409 118.697635 360.569614 93.62868 329.64837 93.62868zM718.09131 93.62868c-30.92329 0-56.073086 25.068955-56.073086 55.82954 0 30.801517 25.149796 55.828516 56.073086 55.828516s56.090483-25.027 56.090483-55.828516C774.182816 118.697635 749.0146 93.62868 718.09131 93.62868z"  horiz-adv-x="1024" />

    
    <glyph glyph-name="daifahuo" unicode="&#58886;" d="M805.502126 712.393285 219.370755 712.393285c-41.919738 0-75.892481-33.972742-75.892481-75.891458l0-501.798661c0-41.921785 33.971719-75.892481 75.892481-75.892481l586.131371 0c41.920762 0 75.891458 33.970696 75.891458 75.892481l0 84.291778c-0.063445 10.994402-8.975419 19.891026-19.971867 19.891026-10.993378 0-19.909445-8.895601-19.97289-19.891026l0-0.040932c0-0.040932 0-0.040932 0-0.084934 0 0 0 0 0-0.039909l0-80.135108c0-22.067598-17.889439-39.940664-39.939641-39.940664L440.621834 98.753397c-0.021489 0-0.021489 0-0.042979 0L223.364719 98.753397c-22.051225 0-39.943734 17.873066-39.943734 39.940664L183.420985 450.458621l228.66391-0.329505 0.020466-172.412768c0-11.612479 9.429767-21.084201 21.083178-21.084201 3.635807 0 6.888897 1.152243 9.872858 2.799766l0.196475-0.370437 79.731926 44.308135 77.094866-46.490847c0.473791-0.329505 0.74292-0.823761 1.25662-1.112334 10.028401-5.970992 22.936385-2.63399 28.887934 7.370875 2.243087 3.829212 2.778276 7.989975 2.508123 12.106736 0.104377 0.864694 0.497327 1.605567 0.497327 2.471284l0 0.040932 0.019443 0-0.019443 172.70134 208.216205-0.329505 0-114.517173c0-0.040932 0-0.081864 0-0.081864 0-11.035334 8.936533-19.971867 19.97289-19.971867 11.036357 0 19.971867 8.93551 19.971867 19.971867 0 0 0 0.040932 0 0.081864L881.39563 636.501828C881.393583 678.421566 847.422887 712.393285 805.502126 712.393285zM183.420985 492.624976 183.420985 632.507864c0 22.072715 17.892509 39.943734 39.943734 39.943734l188.679243 0 0.030699-180.15408L183.420985 492.624976zM533.460266 346.319819l-0.229221-0.37146c-6.474458 3.78828-14.649652 4.28356-21.49557 0.12382-0.760317-0.494257-1.204431-1.194198-1.895163-1.77032l-55.568596-30.884404-0.062422 359.034143L591.02431 672.451598l0.060375-360.88735L533.460266 346.319819zM841.449849 492.296495l-208.236672 0.328481-0.022513 179.825598 168.319543 0c22.050202 0 39.939641-17.871019 39.939641-39.943734L841.449849 492.296495z"  horiz-adv-x="1024" />

    
    <glyph glyph-name="daifukuan" unicode="&#58887;" d="M800.362059 256.874671c-10.467399 0-18.940374-8.469905-19.016099-18.939351l0-0.038886c0 0 0-0.038886 0-0.079818 0 0 0 0 0-0.038886l0-96.378048c0-21.017686-17.019629-38.038338-38.034245-38.038338L379.591853 103.361345c-0.01842 0-0.01842 0-0.036839 0L212.86969 103.361345c-20.99722 0-38.034245 17.020652-38.034245 38.038338L174.835446 631.689219c0 21.016663 17.037025 38.033221 38.034245 38.033221l530.441001 0c21.014616 0 38.036291-17.016559 38.036291-38.033221l0-102.026698c0-0.038886 0-0.076748 0-0.076748 0-10.510378 8.505721-19.019169 19.016099-19.019169s19.017122 8.509814 19.017122 19.019169c0 0 0 0.037862 0 0.076748l0 105.830327c0 39.916105-32.349779 72.26486-72.26486 72.26486L209.065038 707.757708c-39.915082 0-72.26486-32.348756-72.26486-72.26486l0-497.896794c0-39.917128 32.348756-72.266907 72.26486-72.266907l538.050306 0c39.915082 0 72.26486 32.349779 72.26486 72.266907l0 100.340289C819.340295 248.404766 810.830481 256.874671 800.362059 256.874671zM814.163389 483.630115l-277.060153 0c-37.448914 0-67.855434-28.54615-71.550593-65.010643-0.420579-0.666172-0.724501-1.607614-0.733711-3.294023l0-60.188824c0-39.915082 32.346709-72.26486 72.285327-72.26486l277.060153 0c39.916105 0 72.26793 32.349779 72.26793 72.26486l0 50.699706 0 0.038886 0 5.487991C886.43132 451.280336 854.079494 483.630115 814.163389 483.630115zM848.394005 358.937185c0-21.014616-17.055444-38.030152-38.032198-38.030152L567.098387 320.907033c-0.038886 0-0.038886 0-0.038886 0l-26.15366 0c-21.024849 0-38.046524 17.015535-38.046524 38.030152l0 48.623417c0 20.979824 17.021675 38.035268 38.046524 38.035268l269.455965 0c20.977777 0 38.032198-17.056468 38.032198-38.035268L848.394005 358.937185zM788.639063 406.856567c-12.821003 0-23.212678-10.392698-23.212678-23.212678 0-12.784164 10.390651-23.175839 23.212678-23.175839s23.212678 10.391674 23.212678 23.175839C811.850717 396.463869 801.460066 406.856567 788.639063 406.856567z"  horiz-adv-x="1024" />

    
    <glyph glyph-name="shouhouwuyou" unicode="&#58888;" d="M880.061238 274.509307 880.061238 537.031349c0 39.491433-21.044292 76.634378-54.891168 96.945983L572.067562 785.824715c-35.873022 21.539572-80.449263 21.539572-116.332519 0L202.631512 633.977331c-33.856086-20.311605-54.890144-57.45455-54.890144-96.945983l0-309.955354c0-39.469943 21.033036-76.612888 54.890144-96.93575l253.103532-151.868873c17.963117-10.765181 38.069037-16.151865 58.187237-16.151865 20.085454 0 40.181141 5.366218 58.07979 16.108886l255.818363 152.212704-0.193405 0.313132c6.129604 3.653203 10.440793 10.075473 10.440793 17.72571 0 11.616572-9.406231 21.012569-20.990057 21.012569-3.943822 0-7.424086-1.379417-10.570753-3.255137l-0.172939 0.290619L550.451242 14.272307c-22.553669-13.533224-50.557466-13.533224-73.110111 0l-253.093299 151.868873c-21.292955 12.769838-34.514071 36.129872-34.514071 60.934814L189.733761 537.031349c0 24.826432 13.221116 48.165999 34.514071 60.935838l253.093299 151.856593c22.552645 13.534248 50.556443 13.534248 73.110111 0l253.114788-151.856593c21.281699-12.769838 34.492582-36.109406 34.492582-60.935838l0-262.531252-0.011256-0.044002c0-11.594059 9.417487-20.99108 21.012569-20.99108 11.594059 0 21.011546 9.397021 21.011546 20.99108C880.071472 274.477584 880.061238 274.487817 880.061238 274.509307zM354.005105 490.21202l-32.154327-252.133438c-2.089591-17.85567 3.557012-35.796274 15.494902-49.224098 11.938913-13.424754 29.104875-21.129226 47.069015-21.129226l262.466784 0c17.962094 0 35.115776 7.704472 47.054689 21.129226 11.951193 13.426801 17.597797 31.367405 15.473413 49.405223l-32.088836 251.735371c-3.727904 31.712259-30.601972 55.643298-62.538335 55.643298L416.523997 545.638377C384.584564 545.640424 357.71152 521.709385 354.005105 490.21202zM416.523997 503.637798l198.257389 0c10.634198 0 19.589151-7.962346 20.87033-18.726503l32.069393-251.735371c0.721431-6.054903-1.121544-11.874445-5.1503-16.422018-4.041036-4.536316-9.623171-7.03523-15.689331-7.03523L384.413672 209.718675c-6.078439 0-11.659551 2.498914-15.690354 7.03523-4.040013 4.547573-5.884011 10.367115-5.184069 16.195867l32.144094 252.154927C396.934846 495.675452 405.888775 503.637798 416.523997 503.637798zM513.017678 607.308949c26.430976 0 48.585555-17.575284 56.106856-41.560558l43.167149 0c-8.339946 47.379077-49.556673 83.541695-99.274004 83.541695-49.718355 0-90.922802-36.161594-99.263771-83.541695l43.167149 0C464.419843 589.733665 486.596935 607.308949 513.017678 607.308949zM467.189933 376.035608c13.760398 0 24.913413 11.153014 24.913413 24.913413 0 13.760398-11.151991 24.912389-24.913413 24.912389-13.749142 0-24.913413-11.151991-24.913413-24.912389C442.276521 387.188622 453.440791 376.035608 467.189933 376.035608zM560.601416 376.035608c13.771655 0 24.922622 11.153014 24.922622 24.913413 0 13.760398-11.150968 24.912389-24.922622 24.912389-13.750165 0-24.901133-11.151991-24.901133-24.912389C535.700283 387.188622 546.851251 376.035608 560.601416 376.035608zM445.163267 348.80543c0-53.6939 26.659173-85.727477 71.355141-85.727477 32.057113 0 70.2776 14.868639 70.2776 85.727477l-42.002626 0c0-36.981263-9.514701-43.747363-28.274974-43.747363-8.792247 0-29.372981 0-29.372981 43.747363L445.163267 348.80543z"  horiz-adv-x="1024" />

    
    <glyph glyph-name="iconfontscan" unicode="&#58896;" d="M928 352 96 352c-17.664 0-32 14.336-32 32s14.336 32 32 32l832 0c17.696 0 32-14.336 32-32S945.696 352 928 352zM832-32l-192 0c-17.696 0-32 14.304-32 32s14.304 32 32 32l192 0c17.664 0 32 14.336 32 32l0 160c0 17.696 14.304 32 32 32s32-14.304 32-32l0-160C928 11.072 884.928-32 832-32zM352-32 192-32c-52.928 0-96 43.072-96 96l0 160c0 17.696 14.336 32 32 32s32-14.304 32-32l0-160c0-17.664 14.368-32 32-32l160 0c17.664 0 32-14.304 32-32S369.664-32 352-32zM128 512c-17.664 0-32 14.336-32 32L96 704c0 52.928 43.072 96 96 96l160 0c17.664 0 32-14.336 32-32s-14.336-32-32-32L192 736C174.368 736 160 721.632 160 704l0-160C160 526.336 145.664 512 128 512zM896 512c-17.696 0-32 14.336-32 32L864 704c0 17.632-14.336 32-32 32l-192 0c-17.696 0-32 14.336-32 32s14.304 32 32 32l192 0c52.928 0 96-43.072 96-96l0-160C928 526.336 913.696 512 896 512z"  horiz-adv-x="1024" />

    
    <glyph glyph-name="31xiaoxi" unicode="&#58889;" d="M872.802928 140.00594 872.864326 140.00594 872.864326 140.375354ZM641.612475 417.534767 378.562407 417.534767c-18.447141 0-33.352619-13.225209-33.352619-29.515221 0-16.305361 14.905478-29.544897 33.352619-29.544897l263.050068 0c18.417465 0 33.383318 13.239536 33.383318 29.544897C674.995793 404.309558 660.088268 417.534767 641.612475 417.534767M512.006651 801.338037c-228.163513 0-413.794327-158.926616-413.794327-354.272699 0-99.213629 49.568952-192.906521 136.968511-260.892939l101.667517-78.787414c-3.004427-16.778128-15.917528-56.111972-30.527271-92.115977-4.582365-11.159154-1.845021-23.979134 6.78452-32.340569 5.623068-5.445012 13.06148-8.30106 20.588921-8.30106 4.046153 0 8.123005 0.831948 12.019755 2.527566 33.6811 14.997576 115.680673 55.042617 173.285648 115.920126 224.933959 3.243881 406.785703 160.637584 406.785703 353.989243C925.785629 642.411421 740.185514 801.338037 512.006651 801.338037M510.431783 151.124162c-1.847068 0-1.847068-0.029676-3.571339-0.326435-12.734022-1.457188-28.682249-18.655895-28.682249-18.655895s-52.634778-52.692083-96.758718-77.745688c16.096607 53.705156 13.269211 73.488735 8.123005 81.138972-1.279133 1.992377-2.707668 3.508917-4.432962 4.670369l0.118704 0.058328c0 0-0.416486 0.208754-1.130753 0.595564-0.38681 0.237407-0.773619 0.416486-1.190105 0.655939-13.449313 7.198959-83.338057 46.055942-140.16839 100.506065-55.101969 57.871035-85.421508 135.467321-85.421508 205.04498 0 162.780387 159.121044 295.226908 354.689185 295.226908 195.567117 0 354.688161-132.447545 354.688161-295.226908C866.694813 284.271648 705.998901 151.124162 510.431783 151.124162M645.450896 535.625326l-266.88849 0c-18.447141 0-33.383318-13.224186-33.383318-29.515221 0-16.304338 14.936177-29.529547 33.383318-29.529547l266.88849 0c18.47784 0 33.352619 13.225209 33.352619 29.529547C678.803515 522.40114 663.928736 535.625326 645.450896 535.625326"  horiz-adv-x="1024" />

    
    <glyph glyph-name="31erweima" unicode="&#58898;" d="M607.272365 190.435493c-17.152658 0-31.147394-13.508665-31.147394-30.172183l0-103.540168c0-16.664541 13.995759-30.230512 31.147394-30.230512 17.206894 0 31.233352 13.56597 31.233352 30.230512L638.505717 160.262286C638.50674 176.925804 624.480282 190.435493 607.272365 190.435493M506.514567 698.815035c-2.294252 42.707684-35.736922 77.884858-78.500888 82.531692l0 0.644683L202.31838 781.99141c-46.981011 0-85.657892-36.95568-88.153736-83.176374l-0.143263-213.461673c0-2.696412 0.472767-5.349845 1.320065-7.78736 7.198959-42.434461 43.782156-73.2677 86.976934-73.2677l221.363643 0 4.330632 0.258896 0 0.358157c39.206954 4.187369 70.729901 33.528628 77.153194 72.003917 1.004887 3.054569 1.51961 5.736655 1.51961 8.43409L506.685459 694.499753l0 4.315282L506.514567 698.815035zM453.85523 689.594023l0-192.897312c0-21.912056-17.897625-39.709397-39.925315-39.709397L206.706317 456.987315c-21.999037 0-39.895639 17.797341-39.895639 39.709397L166.810678 689.594023c0 21.914102 17.896602 39.73805 39.895639 39.73805l207.223598 0C435.957605 729.332073 453.85523 711.507102 453.85523 689.594023M496.158708 272.809595c-2.295276 41.530882-34.790364 75.747171-76.378551 80.308047l0 0.630357L200.051757 353.747999c-45.746904 0-83.405595-35.93749-85.872786-80.938404l-0.186242-207.797673c0-2.725064 0.531096-5.478781 1.304715-7.628748 7.013741-41.330314 42.678008-71.38891 84.754313-71.38891l215.427444 0 4.301979 0.230244 0 0.401136c38.175461 4.101411 68.835761 32.66905 75.030857 70.039169 1.032516 2.726088 1.548262 5.508457 1.548262 8.347109L496.3603 268.476917l-0.057305 4.331655L496.158708 272.808572zM444.733479 263.745149l0-187.720406c0-21.25407-17.352203-38.547944-38.71986-38.547944L204.325084 37.476799c-21.339004 0-38.692231 17.293875-38.692231 38.547944L165.632853 263.745149c0 21.224394 17.353227 38.546921 38.692231 38.546921l201.688535 0C427.381275 302.29207 444.733479 284.969543 444.733479 263.745149M723.2324 319.931822c-17.181311 0-31.17707-13.537318-31.17707-30.200836l0-103.59952c0-16.634866 13.995759-30.200836 31.17707-30.200836 17.151635 0 31.176047 13.56597 31.176047 30.200836l0 103.59952C754.408447 306.394505 740.383012 319.931822 723.2324 319.931822M909.977595 700.852438l-0.115634 0c-2.322905 41.645492-34.903951 75.948763-76.607772 80.536244l0 0.618077L635.811352 782.006759c-45.776579 0-83.550904-36.038798-86.074378-81.154321l-0.144286-208.356398c0-2.752694 0.51677-5.580089 1.319042-7.600095 6.999414-41.444924 42.736337-71.546499 84.899622-71.546499l193.140858 0 4.300956 0.24457 0 0.343831c38.261419 4.173043 68.978001 32.81129 75.28873 70.255087 0.975211 2.824325 1.463328 5.606695 1.463328 8.30413L910.005224 696.535109 909.977595 700.852438zM858.26584 691.773665l0-188.193173c0-21.324678-17.412578-38.662555-38.835494-38.662555L640.170636 464.917938c-21.453614 0-38.864146 17.336854-38.864146 38.662555L601.30649 691.773665c0 21.296025 17.411555 38.619576 38.864146 38.619576l179.25971 0C840.853261 730.393241 858.26584 713.069691 858.26584 691.773665M837.699432 319.961498c-17.181311 0-31.17707-13.566994-31.17707-30.229488l0-51.77213c0-16.662495 13.995759-30.200836 31.17707-30.200836 17.180288 0 31.205723 13.537318 31.205723 30.200836l0 51.77213C868.905154 306.394505 854.87972 319.961498 837.699432 319.961498M837.699432 164.593941c-17.181311 0-31.17707-13.537318-31.17707-30.201859l0-77.66894c0-16.693194 13.995759-30.230512 31.17707-30.230512 17.180288 0 31.205723 13.537318 31.205723 30.230512l0 77.66894C868.905154 151.056624 854.87972 164.593941 837.699432 164.593941M723.2324 138.665409c-17.181311 0-31.17707-13.537318-31.17707-30.173207l0-51.798736c0-16.634866 13.995759-30.200836 31.17707-30.200836 17.151635 0 31.176047 13.56597 31.176047 30.200836L754.408447 108.491179C754.408447 125.127068 740.383012 138.665409 723.2324 138.665409M607.272365 319.961498c-17.152658 0-31.147394-13.566994-31.147394-30.229488l0-25.900903c0-16.635889 13.995759-30.201859 31.147394-30.201859 17.206894 0 31.233352 13.56597 31.233352 30.201859l0 25.900903C638.50674 306.394505 624.480282 319.961498 607.272365 319.961498"  horiz-adv-x="1024" />

    
    <glyph glyph-name="apphunjiawang" unicode="&#58920;" d="M933.538197 487.397928c-26.656103 42.22059-69.061912 67.967998-116.384707 70.546729-4.006244 0.223081-7.921413 0.333598-11.743462 0.333598-63.961754 0-101.4516-30.682813-121.374348-56.449663l-10.387581-13.429871L663.259494 501.828592c-19.922748 25.76685-57.412594 56.449663-121.375371 56.449663-3.821025 0-7.736195-0.110517-11.742439-0.333598-47.321772-2.579755-89.728604-28.327162-116.38573-70.546729-41.125653-64.908312-30.961152-155.675572 25.822109-231.360322 14.46955-19.367093 36.285414-47.897893 59.269895-72.977082 49.843198-54.205553 110.021789-105.181551 174.799118-148.255579 64.777329 43.074028 124.954897 94.050026 174.800142 148.255579 22.984481 25.080212 44.798299 53.611012 59.267848 72.977082C964.500373 331.722356 974.664873 422.489616 933.538197 487.397928zM474.340797 160.525276l-0.01842 0.021489-0.020466 0.021489c-24.026206 26.214035-46.530756 55.649438-61.376882 75.516928-65.139579 86.847997-75.856665 192.486966-27.322275 269.087575 32.512485 51.493791 84.533278 82.845847 142.689816 86.015026 4.595668 0.255827 9.169847 0.385786 13.589506 0.385786 34.431184 0 65.793472-7.625678 93.211938-22.664186 14.176884-7.77508 27.076682-17.383926 38.552038-28.701692 11.474332 11.317767 24.376177 20.927635 38.551014 28.701692 27.420513 15.038508 58.780755 22.664186 93.211938 22.664186 2.973728 0 6.021134-0.079818 9.080819-0.194428-5.414313 16.578584-12.801561 32.422434-22.197558 47.25321-35.563984 56.328913-92.140537 90.679255-155.275459 94.120634-5.344728 0.296759-10.567683 0.446162-15.664771 0.446162-85.336574 0-135.353734-40.935318-161.933089-75.311243l-13.859659-17.919115-13.858636 17.919115c-26.580379 34.375925-76.598562 75.311243-161.933089 75.311243-5.097088 0-10.31902-0.149403-15.665795-0.446162-63.133899-3.440355-119.710452-37.791721-155.274436-94.120634C43.958676 552.033018 57.520553 430.938032 133.277958 329.96227c19.303648-25.837458 48.409546-63.902402 79.072917-97.363492 66.500577-72.317049 146.786111-140.327002 233.208413-197.793832 30.859845 20.520359 60.930721 42.391483 89.878007 65.314565C513.776971 119.683079 493.295498 139.911796 474.340797 160.525276z"  horiz-adv-x="1024" />

    
    <glyph glyph-name="5109" unicode="&#58943;" d="M872.570453 290.914163l-26.484362 152.880235-324.09866-193.23913-317.84954 193.276327-26.409968-165.006502c0.111591 0.223183 0.371971 0.446366 0.632351 0.706746-3.794108-6.323513-5.877148-12.833012-5.877148-19.4913 0-58.287915 244.645574-237.8013 326.144502-237.8013 81.573323 0 379.262015 179.476189 379.262015 237.8013C877.889644 266.289658 875.806604 272.427186 872.570453 290.914163zM524.516837 284.702241 26.447165 586.519815l499.445966 159.278143L1024 588.751644 524.516837 284.702241zM29.869301 559.812271 0 229.092521l29.869301-99.167569 27.67467 99.167569L29.869301 559.812271z"  horiz-adv-x="1024" />

    
    <glyph glyph-name="fenxiang" unicode="&#58925;" d="M768 240.64c-49.152 0-93.184-23.552-120.832-59.392L398.336 325.632c15.36 37.888 15.36 79.872 0 117.76l248.832 144.384c27.648-35.84 71.68-59.392 120.832-59.392 84.992 0 153.6 68.608 153.6 153.6 0 84.992-68.608 153.6-153.6 153.6s-153.6-68.608-153.6-153.6c0-20.48 4.096-40.96 11.264-58.368L376.832 478.208C348.16 514.048 305.152 537.6 256 537.6c-84.992 0-153.6-68.608-153.6-153.6s68.608-153.6 153.6-153.6c49.152 0 93.184 23.552 120.832 59.392l248.832-144.384C618.496 128 614.4 107.52 614.4 87.04c0-84.992 68.608-153.6 153.6-153.6s153.6 68.608 153.6 153.6S852.992 240.64 768 240.64zM768 793.6c62.464 0 112.64-50.176 112.64-112.64s-50.176-112.64-112.64-112.64-112.64 50.176-112.64 112.64S705.536 793.6 768 793.6zM256 271.36c-62.464 0-112.64 50.176-112.64 112.64 0 62.464 50.176 112.64 112.64 112.64s112.64-50.176 112.64-112.64C368.64 321.536 318.464 271.36 256 271.36zM768-25.6c-62.464 0-112.64 50.176-112.64 112.64s50.176 112.64 112.64 112.64 112.64-50.176 112.64-112.64S830.464-25.6 768-25.6z"  horiz-adv-x="1024" />

    
    <glyph glyph-name="yiliao" unicode="&#58890;" d="M252.788865 426.816155c-18.162662-57.001225-9.223059-113.825418-10.720156-169.95888-0.357134-14.058181-2.867304-22.039969-16.845667-29.185716-46.711881-23.898293-69.819159-78.250178-56.987922-128.099517 13.207813-51.329039 57.665351-86.665849 109.993137-87.398536 52.289923-0.753153 98.234325 33.736359 112.345718 84.273359 13.991666 50.15019-7.725962 103.46035-53.137221 130.135896-5.741771 3.355421-11.813047 6.15928-19.578917 10.159384 5.837962 57.08923-9.43386 116.294656 12.58462 175.753863 120.165824-83.344197 237.678214-83.298148 355.926362-1.687432 19.073404-28.132734 14.056134-59.252499 14.497179-89.701998-15.918551-3.194762-30.936593-5.03876-45.228087-9.31311-61.700247-18.459421-105.08536-75.052347-107.324354-139.072429-0.37146-10.310833-0.355087-20.656459-0.264013-30.983665 0.13303-15.661701-0.556679-29.731138-11.08036-44.122917-16.534582-22.598694-8.399297-55.786561 13.991666-73.344448 21.843494-17.116843 53.1802-15.995299 73.707722 2.6432 21.958104 19.953448 25.288966 50.984185 8.15882 75.972299-29.650297 43.245943-3.423983 119.753431 46.412053 135.333268 40.866756 12.801561 87.461981-13.104459 95.316879-55.404867 3.960195-21.240767 2.707668-43.526329 2.707668-65.349357-0.01535-4.593622-4.52199-9.435906-7.576559-13.726629-17.011442-24.068162-13.989619-56.660464 7.262404-76.351945 21.408589-19.815301 54.598502-20.388353 76.517721-1.301645 22.449291 19.553335 25.51 50.303686 10.332323 76.05621-5.935176 10.057053-8.711406 23.451108-8.624425 35.31225 0.314155 41.445948-2.833535 81.849146-29.615505 115.825982-10.765181 13.642718-24.927739 24.581861-36.71111 37.518498-4.709255 5.183046-9.717316 12.236696-10.211573 18.775622-2.960425 38.438451-4.63353 76.992535-6.768147 116.227118 24.995277-4.480035 48.355311-19.568684 69.621661-38.575574 40.949644-36.601616 58.612932-85.787852 71.53115-136.768967 15.004739-59.211567 20.413935-119.599935 15.598256-180.709735-5.508457-70.006424-54.124711-121.280204-124.747165-130.865513-13.809517-1.879813-27.849278-2.89698-41.780569-2.914376-168.33694-0.185218-336.662623-0.185218-505.001609-0.086981-40.133046 0.027629-78.54796 6.17463-111.883183 31.346939-33.68724 25.442462-52.087309 59.639309-54.640458 100.819197-5.473665 88.398306 4.987594 174.61697 41.580001 256.410857C155.086659 375.726569 201.295074 415.575136 252.788865 426.816155zM738.805074 624.033865c-0.538259-127.590933-102.659101-229.161237-229.922576-228.66698-126.888945 0.49221-229.592049 103.763249-228.935086 230.187613 0.674359 127.32999 103.127775 228.955552 230.458789 228.625024C637.971551 853.845924 739.331054 751.711779 738.805074 624.033865zM318.050218 127.358899c0.147356-20.335141-17.835204-38.312584-38.278815-38.270629-19.900236 0.045025-36.982286 16.770965-37.581943 36.81958-0.626263 20.781302 16.425088 38.830377 36.995589 39.20593C299.500746 165.478078 317.884442 147.601942 318.050218 127.358899z"  horiz-adv-x="1024" />

    
    <glyph glyph-name="geren" unicode="&#58967;" d="M586.945923 382.418992c55.067176 27.962865 92.91211 85.125773 92.91211 150.998039 0 93.338828-75.937506 169.276335-169.277358 169.276335s-169.275311-75.937506-169.275311-169.276335c0-65.872267 37.844933-123.034151 92.911086-150.998039-95.652524-32.016181-164.778904-122.45496-164.778904-228.743728 0-11.31572 9.17394-20.491707 20.491707-20.491707s20.491707 9.174963 20.491707 20.491707c0 110.36869 89.791026 200.160739 200.160739 200.160739S710.741413 264.043954 710.741413 153.675264c0-11.31572 9.17394-20.491707 20.491707-20.491707s20.491707 9.174963 20.491707 20.491707C751.723803 259.964032 682.598446 350.401788 586.945923 382.418992zM382.287753 533.417031c0 70.742181 57.552787 128.293945 128.292921 128.293945 70.742181 0 128.293945-57.552787 128.293945-128.293945 0-70.741157-57.552787-128.292921-128.293945-128.292921C439.84054 405.123087 382.287753 462.675874 382.287753 533.417031zM827.871087 699.872111C743.498468 784.242683 631.320573 830.709995 512 830.709995S280.500509 784.243707 196.128913 699.872111C111.756293 615.498468 65.291029 503.321596 65.291029 384.001023s46.465265-231.499491 130.837884-315.872111 196.550515-130.837884 315.871087-130.837884 231.498468 46.465265 315.871087 130.837884S958.708971 264.680451 958.708971 384.001023 912.243707 615.499491 827.871087 699.872111zM512-21.726581c-223.718271 0-405.726581 182.007287-405.726581 405.727605 0 223.718271 182.00831 405.726581 405.726581 405.726581s405.726581-182.007287 405.726581-405.726581C917.726581 160.280706 735.718271-21.726581 512-21.726581z"  horiz-adv-x="1024" />

    
    <glyph glyph-name="listview" unicode="&#59003;" d="M599.061868 679.387567 936.943248 679.387567c11.447726 0 20.729114 9.281387 20.729114 20.729114 0 11.447726-9.281387 20.729114-20.729114 20.729114L599.061868 720.845795c-11.447726 0-20.729114-9.281387-20.729114-20.729114C578.332754 688.669978 587.614142 679.387567 599.061868 679.387567zM936.943248 563.305759 599.061868 563.305759c-11.447726 0-20.729114-9.281387-20.729114-20.729114 0-11.447726 9.281387-20.729114 20.729114-20.729114L936.943248 521.847531c11.447726 0 20.729114 9.281387 20.729114 20.729114C957.672362 554.024371 948.390975 563.305759 936.943248 563.305759zM366.897228 830.709995 180.336228 830.709995c-62.966077 0-114.009613-51.043536-114.009613-114.009613l0-186.561c0-62.966077 51.043536-114.009613 114.009613-114.009613l186.561 0c62.966077 0 114.009613 51.043536 114.009613 114.009613L480.906841 716.700381C480.906841 779.665435 429.862281 830.709995 366.897228 830.709995zM439.448614 530.139381c0-40.068578-32.482809-72.551386-72.551386-72.551386L180.336228 457.587995c-40.068578 0-72.551386 32.482809-72.551386 72.551386L107.784842 716.700381c0 40.068578 32.482809 72.551386 72.551386 72.551386l186.561 0c40.068578 0 72.551386-32.482809 72.551386-72.551386L439.448614 530.139381zM936.943248 242.007055 599.061868 242.007055c-11.447726 0-20.729114-9.281387-20.729114-20.729114s9.281387-20.729114 20.729114-20.729114L936.943248 200.548828c11.447726 0 20.729114 9.281387 20.729114 20.729114S948.390975 242.007055 936.943248 242.007055zM936.943248 84.465996 599.061868 84.465996c-11.447726 0-20.729114-9.281387-20.729114-20.729114s9.281387-20.729114 20.729114-20.729114L936.943248 43.007769c11.447726 0 20.729114 9.281387 20.729114 20.729114S948.390975 84.465996 936.943248 84.465996zM366.897228 351.870232 180.336228 351.870232c-62.966077 0-114.009613-51.043536-114.009613-114.009613l0-186.561c0-62.966077 51.043536-114.009613 114.009613-114.009613l186.561 0c62.966077 0 114.009613 51.043536 114.009613 114.009613L480.906841 237.860619C480.906841 300.826696 429.862281 351.870232 366.897228 351.870232zM439.448614 51.300642c0-40.068578-32.482809-72.551386-72.551386-72.551386L180.336228-21.250744c-40.068578 0-72.551386 32.482809-72.551386 72.551386L107.784842 237.860619c0 40.068578 32.482809 72.551386 72.551386 72.551386l186.561 0c40.068578 0 72.551386-32.482809 72.551386-72.551386L439.448614 51.300642z"  horiz-adv-x="1024" />

    
    <glyph glyph-name="tupian" unicode="&#59007;" d="M841.71335 830.709995 182.285626 830.709995c-64.511269 0-116.995621-52.484352-116.995621-116.995621L65.290005 54.28665c0-64.511269 52.484352-116.995621 116.995621-116.995621l659.427724 0c64.511269 0 116.995621 52.484352 116.995621 116.995621L958.708971 713.714374C958.708971 778.225643 906.225643 830.709995 841.71335 830.709995zM182.285626 788.166039l659.427724 0c41.051975 0 74.451666-33.398668 74.451666-74.451666l0-136.557142c-150.09446-5.26184-290.370297-66.084091-396.978337-172.692131-49.960879-49.961902-89.841168-107.331517-118.694309-169.625282-83.496669 70.835302-204.372667 75.376735-292.65841 13.617136L107.833961 713.714374C107.833961 754.767372 141.232628 788.166039 182.285626 788.166039zM107.833961 54.28665 107.833961 193.372382c76.54228 74.311473 198.833511 74.234725 275.272437-0.24457-24.303522-65.298192-37.026288-135.112234-37.026288-206.91149 0-2.223644 0.343831-4.366448 0.977257-6.381337L182.285626-20.165016C141.232628-20.165016 107.833961 13.233652 107.833961 54.28665zM841.71335-20.165016 387.646807-20.165016c0.633427 2.01489 0.977257 4.157693 0.977257 6.381337 0 146.71755 57.053414 284.572244 160.647817 388.166647 98.570993 98.570993 228.166583 154.963351 366.894158 160.204725L916.166039 54.28665C916.165016 13.233652 882.766348-20.165016 841.71335-20.165016zM312.397986 482.541317c60.8376 0 110.332874 49.494251 110.332874 110.332874s-49.494251 110.332874-110.332874 110.332874-110.332874-49.494251-110.332874-110.332874S251.559363 482.541317 312.397986 482.541317zM312.397986 660.662087c37.378306 0 67.788919-30.40959 67.788919-67.788919s-30.40959-67.788919-67.788919-67.788919-67.788919 30.40959-67.788919 67.788919S275.018657 660.662087 312.397986 660.662087z"  horiz-adv-x="1024" />

    
    <glyph glyph-name="shouye" unicode="&#59083;" d="M958.400956 444.45079c-0.058328 5.760191-2.597151 11.215436-6.965645 14.97097L524.345166 826.488857c-7.498788 6.445806-18.581194 6.445806-26.079982 0L309.582871 664.3245l0 102.017488c0 11.04966-8.901741 19.532869-19.951401 19.532869l-88.034009 0c-11.048637 0-19.928888-8.482185-19.928888-19.532869l0-211.954343L71.176063 459.42176c-4.423753-3.800559-6.967692-9.341762-6.967692-15.173584l0-105.500822c0-7.819083 4.554736-14.921851 11.660574-18.183128 2.670829-1.226944 5.51562-1.824555 8.343015-1.824555 4.699022 0 9.346879 1.654686 13.048177 4.836145l53.29788 45.825698 0-324.100516c0-60.677964 49.364291-110.042255 110.042255-110.042255L764.792447-64.741257c60.677964 0 110.042255 49.364291 110.042255 110.042255L874.834702 368.973772l51.585889-44.335764c5.955642-5.119601 14.356986-6.282077 21.481244-2.965541 7.122211 3.313465 11.645225 10.488889 11.565407 18.342764L958.400956 444.45079zM221.578538 745.965915l48.095391 0 0-115.941616-48.095391-41.336454L221.578538 745.965915zM570.718333-24.725892 436.666244-24.725892 436.666244 195.357596c0 11.031241 8.976442 20.007683 20.007683 20.007683l94.0357 0c11.031241 0 20.007683-8.976442 20.007683-20.007683L570.71731-24.725892zM834.818313 400.104793l0-354.803795c0-38.612413-31.414477-70.02689-70.02689-70.02689l-154.058748 0L610.732675 195.357596c0 33.096792-26.926256 60.023048-60.023048 60.023048l-94.0357 0c-33.096792 0-60.023048-26.926256-60.023048-60.023048l0-220.084511L260.59925-24.726915c-38.612413 0-70.02689 31.414477-70.02689 70.02689L190.57236 400.104793c0 1.172709-0.121773 2.314719-0.315178 3.432169l322.113255 276.958846 322.70268-277.348726C834.921667 402.151405 834.818313 401.141402 834.818313 400.104793zM525.411451 722.052273c-7.502881 6.445806-18.587334 6.446829-26.086122-0.00307L104.223736 382.336104l0 52.726875 407.081439 349.870436 407.176606-349.9523 0.521886-51.205219L525.411451 722.052273z"  horiz-adv-x="1024" />

    
    <glyph glyph-name="z-alipay" unicode="&#59084;" d="M807.894 815.551h-587.297c-76.004 0-138.188-62.185-138.188-138.188v-585.569c0-76.002 62.184-138.186 138.188-138.186h587.297c76.002 0 138.184 62.184 138.184 138.186v5.181c0 0-224.554 93.278-338.56 148.555-76.003-93.278-174.46-150.28-276.374-150.28-171.007 0-229.736 150.28-148.552 248.735 17.273 20.73 48.366 41.459 95.006 53.548 74.274 19 191.736-10.361 300.559-46.636 19 36.275 36.27 76.002 48.363 119.188l-338.56-0v34.545h174.463v58.73l-210.735 0v34.548l210.736-0v88.095c0 0 0 15.544 15.543 15.544h84.641v-101.913l209.008 0v-34.546h-209.008v-60.46h171.006c-17.274-65.638-41.453-127.824-72.545-181.369 51.819-18.999 98.455-36.275 133.005-48.368 124.366-41.454 152.003-44.91 152.003-44.91v447.381c0 76.003-62.181 138.188-138.184 138.188zM293.143 347.441c-22.452-1.73-62.185-12.091-84.638-31.091-67.368-58.736-27.639-164.1 107.095-164.1 77.731 0 155.461 50.096 219.372 129.551-88.096 43.185-162.369 74.278-241.83 65.641z"  horiz-adv-x="1024" />

    
    <glyph glyph-name="wenzhang-copy" unicode="&#58947;" d="M788.551 603.105c-74.801 0-135.633 60.832-135.633 135.605v156.171h-487.636c-45.595 0-82.548-36.982-82.548-82.549v-856.719c0-45.567 36.955-82.493 82.548-82.493h693.46c45.571 0 82.523 36.926 82.523 82.493v647.493h-152.714zM805.084 56.884h-586.199v55.301h586.199v-55.301zM805.084 233.85h-586.199v55.301h586.199v-55.301zM805.084 410.816h-586.199v55.301h586.199v-55.301zM706.002 894.881v-156.171c0-45.567 36.955-82.493 82.549-82.493h152.714l-235.263 238.662z"  horiz-adv-x="1024" />

    
    <glyph glyph-name="xiepinglun" unicode="&#58892;" d="M866.868263 749.420597c-49.545416 51.022047-114.953102 80.284511-179.454138 80.284511-51.860135 0-99.106182-19.243273-133.036969-54.185087L99.704816 307.291944c-6.420223-6.610558-10.1952-15.343453-10.614755-24.549116L75.133188-23.829476c-0.483001-10.601452 3.52529-20.915355 11.039427-28.409027 7.083326-7.064906 16.664541-11.005658 26.619264-11.005658 0.604774 0 1.212618 0.014326 1.819438 0.044002l297.698193 14.373359c9.549493 0.461511 18.567891 4.53427 25.228591 11.392468l454.673363 468.227054C970.528158 511.444601 959.158203 654.38001 866.868263 749.420597zM393.811204 25.768129l-241.473657-11.658528 11.422144 250.916726 52.277644 53.836139 231.191476-238.083443L393.811204 25.768129zM838.119499 483.320053 499.779677 134.894526 268.588201 372.978992l339.881944 350.014722c25.130354 25.879414 56.800657 31.312146 78.942957 31.312146 44.240597 0 89.933265-20.925588 125.362172-57.411571 31.78696-32.735565 51.491745-73.840752 55.482639-115.744117C871.994004 541.924799 861.290221 507.181507 838.119499 483.320053z"  horiz-adv-x="1024" />

    
    <glyph glyph-name="bianji" unicode="&#59001;" d="M297.802 177.897l-53.746 11.967 369.969 369.538 61.509-61.509-369.914-369.486-7.817 49.488zM716.018 458.109l-368.244-367.814-149.055-43.772-30.944 30.944 45.659 155.524 364.038 363.609-44.043 44.097-369.538-366.144c-5.068-4.043-9.325-9.164-11.266-15.904l-77.519-263.986c-3.397-11.537-0.215-23.937 8.302-32.453 6.147-6.254 14.557-9.595 23.072-9.595 3.126 0 6.199 0.431 9.218 1.294l264.147 77.519c6.309 1.831 11.159 5.714 15.093 10.352l370.4 367.004-49.324 49.326zM566.909 677.514l232.073-231.911 53.045 49.756-232.020 231.911-53.1-49.756zM912.997 680.856l-111.157 111.104c-30.674 30.674-80.16 30.944-110.565 0.594l-34.122-34.502 222.369-222.261 34.122 34.502c30.349 30.35 30.134 79.84-0.645 110.565z"  horiz-adv-x="1024" />

    
    <glyph glyph-name="usergroup1" unicode="&#58930;" d="M619.469 388.71c77.978 48.64 124.109 130.406 124.109 224.922 0 153.498-128.461 282.368-278.733 282.368-153.037 0-274.33-128.973-274.33-282.368 0-94.515 44.8-176.282 111.206-224.922-176.077-64.563-301.722-328.909-301.722-516.71h932.813c0 187.802-125.645 452.147-313.344 516.71zM981.862 309.811c56.269 41.574 93.901 120.371 93.901 182.118 0 127.488-96.819 227.891-226.765 227.891-21.606 0-41.882-2.918-59.187-9.984 4.352-25.856 14.438-63.078 14.438-96.051 0-80.282-33.331-161.894-89.549-214.938 173.261-83.098 277.197-345.958 277.197-526.694h236.902c0 151.859-102.554 387.533-246.938 437.658z"  horiz-adv-x="1229" />

    
    <glyph glyph-name="shouji" unicode="&#58918;" d="M768-128 256-128C204.567273-128 162.909091-86.341818 162.909091-34.909091L162.909091 104.727273 162.909091 151.272727 162.909091 197.818182 162.909091 802.909091C162.909091 854.341818 204.567273 896 256 896L768 896C819.432727 896 861.090909 854.341818 861.090909 802.909091L861.090909 197.818182 861.090909 151.272727 861.090909 104.727273 861.090909-34.909091C861.090909-86.341818 819.432727-128 768-128ZM814.545455 802.909091C814.545455 828.602182 793.693091 849.454545 768 849.454545L256 849.454545C230.306909 849.454545 209.454545 828.602182 209.454545 802.909091L209.454545 197.818182 814.545455 197.818182 814.545455 802.909091ZM814.545455 151.272727 209.454545 151.272727 209.454545-34.909091C209.454545-60.602182 230.306909-81.454545 256-81.454545L768-81.454545C793.693091-81.454545 814.545455-60.602182 814.545455-34.909091L814.545455 151.272727ZM512-34.909091C473.460364-34.909091 442.181818-3.630545 442.181818 34.909091 442.181818 73.448727 473.460364 104.727273 512 104.727273 550.539636 104.727273 581.818182 73.448727 581.818182 34.909091 581.818182-3.630545 550.539636-34.909091 512-34.909091Z"  horiz-adv-x="1024" />

    
    <glyph glyph-name="chazhao" unicode="&#58897;" d="M945.792-4.992l-220.736 217.728c58.24 64.384 91.968 150.144 91.968 245.248A373.568 373.568 0 0 1 442.944 832a373.568 373.568 0 0 1-374.016-374.016 373.632 373.632 0 0 1 374.016-374.016c95.104 0 180.864 33.664 245.248 91.968l220.8-217.664c9.216-9.152 27.648-9.152 36.8 0 12.288 12.16 12.288 27.52 0 36.736zM118.016 457.984a325.12 325.12 0 0 0 324.992 324.992A323.2 323.2 0 0 0 768 457.984a325.952 325.952 0 0 0-88.96-223.872c-3.072 0-3.072-3.072-6.144-3.072-3.008-3.008-3.008-3.008-3.008-6.08a326.144 326.144 0 0 0-223.808-88.96c-180.928-3.008-328.064 144.064-328.064 321.984z"  horiz-adv-x="1024" />

    
    <glyph glyph-name="jiadian" unicode="&#58942;" d="M503.7056 896C282.0608 896 102.4 716.3392 102.4 494.6944c0-221.6448 179.6608-401.3056 401.3056-401.3056 221.6448 0 401.3056 179.6608 401.3056 401.3056C905.0112 716.3392 725.3504 896 503.7056 896z m32.512-80.4352c76.6976 40.2944 156.8512-70.2208 156.8512-156.8512s-84.224-204.0576-156.8512-156.8512c-21.3248 13.8752-9.7024 13.824-9.7024 100.4544s-76.544 167.9616 9.7024 213.248zM216.9856 354.816c-73.2416 46.2592-17.6128 170.9312 57.3952 214.272 75.008 43.2896 218.8544 29.0816 214.272-57.4208-1.3568-25.3952-7.1168-15.3088-82.1504-58.624-75.008-43.3152-107.1872-150.272-189.5168-98.2272z m559.6672-37.4528c-3.456-86.5536-139.2384-100.736-214.272-57.4208-75.008 43.3152-134.6048 174.976-57.3952 214.272 22.656 11.52 16.8192 1.4848 91.8272-41.8304s183.7312-17.7152 179.84-115.0208z m-163.84-368.7936a25.3184 25.3184 0 0 0-25.344 27.2896c0.2048 2.6112 0.3328 5.2736 0.3328 7.9616 0 48.3328-37.632 87.5264-84.096 87.5264-46.4384 0-84.096-39.1936-84.096-87.5264 0-2.688 0.128-5.3504 0.3584-7.9616a25.3184 25.3184 0 0 0-25.344-27.2896h-104.3456a25.4208 25.4208 0 0 1-25.4208-25.4208v-25.728c0-14.0288 11.392-25.4208 25.4208-25.4208h426.8544a25.4208 25.4208 0 0 1 25.4208 25.4208v25.728a25.4208 25.4208 0 0 1-25.4208 25.4208h-104.32z"  horiz-adv-x="1024" />

    
    <glyph glyph-name="jiancai" unicode="&#58893;" d="M972.8 406.976h-6.4c-12.8 44.8-38.4 121.6-102.4 217.6l6.4 83.2c-70.4-64-249.6-96-422.4-96h-19.2c-32-19.2-76.8-57.6-83.2-70.4-12.8-19.2-12.8-44.8-6.4-70.4 6.4-44.8 19.2-108.8 0-134.4 0-6.4-6.4-6.4-12.8-6.4s-19.2 0-25.6 6.4c-6.4 12.8-12.8 25.6-12.8 38.4 0 38.4 6.4 83.2 0 121.6 0 12.8 0 19.2-6.4 32 0 12.8-12.8 25.6-25.6 32-12.8 6.4-25.6 6.4-32-6.4l-6.4-6.4c0-6.4-6.4-12.8-6.4-25.6-12.8-83.2 44.8-166.4 12.8-243.2-6.4-25.6-25.6-44.8-51.2-32-12.8 6.4-19.2 12.8-25.6 19.2-32 57.6-19.2 121.6-12.8 185.6 6.4 57.6 25.6 108.8-25.6 147.2-6.4 6.4-44.8 51.2-44.8 57.6-12.8 12.8-25.6 32-38.4 51.2l64-608c6.4-32 19.2-64 44.8-83.2 51.2-51.2 160-121.6 313.6-121.6s262.4 76.8 313.6 121.6c25.6 19.2 38.4 51.2 44.8 83.2l12.8 96c-147.2 25.6-256 134.4-307.2 198.4-38.4 6.4-70.4 38.4-70.4 83.2 0 44.8 38.4 83.2 83.2 83.2 44.8 0 83.2-38.4 83.2-83.2v-19.2c44.8-51.2 121.6-134.4 230.4-153.6l25.6 262.4c38.4-70.4 57.6-128 70.4-166.4l-19.2-19.2-57.6-115.2c-172.8 12.8-288 166.4-320 211.2-6.4 12.8-19.2 12.8-25.6 6.4-6.4 0-12.8-12.8-6.4-25.6 32-51.2 153.6-217.6 345.6-224 6.4-6.4 12.8-19.2 25.6-25.6 25.6-12.8 51.2-6.4 57.6 12.8l57.6 115.2c12.8 25.6 6.4 57.6-19.2 70.4zM153.6 701.376c0 6.4-6.4 6.4-6.4 12.8 0 38.4 134.4 70.4 294.4 70.4s294.4-32 294.4-70.4c0-6.4 0-6.4-6.4-12.8 76.8 19.2 121.6 51.2 121.6 70.4 0 44.8-160 102.4-409.6 102.4s-409.6-64-409.6-102.4c12.8-25.6 51.2-51.2 121.6-70.4z"  horiz-adv-x="1024" />

    
    <glyph glyph-name="gengduo" unicode="&#59036;" d="M354.555346 418.680825H62.207184A62.207184 62.207184 0 0 0 0 480.888008V773.236171C0 807.60372 27.839635 835.443355 62.207184 835.443355H354.555346c34.367549 0 62.271183-27.839635 62.271183-62.207184v-292.348163a62.207184 62.207184 0 0 0-62.271183-62.207183M354.555346-100.352363H62.207184A62.207184 62.207184 0 0 0 0-38.08118v292.284164c0 34.367549 27.839635 62.271183 62.207184 62.271182H354.555346c34.367549 0 62.271183-27.903634 62.271183-62.271182v-292.284164a62.207184 62.207184 0 0 0-62.271183-62.271183M1013.938692 583.030668l-206.717287-206.717287a62.207184 62.207184 0 0 0-87.998845 0l-206.717287 206.717287a62.207184 62.207184 0 0 0 0 87.998845l206.717287 206.717287a62.143184 62.143184 0 0 0 87.934846 0l206.717287-206.717287c24.319681-24.319681 24.319681-63.679164 0-87.998845M909.428064-100.352363H616.951903a62.207184 62.207184 0 0 0-62.207184 62.271183v292.284164c0 34.367549 27.839635 62.271183 62.207184 62.271182h292.348162c34.367549 0 62.207184-27.903634 62.207184-62.271182v-292.284164a62.207184 62.207184 0 0 0-62.207184-62.271183"  horiz-adv-x="1087" />

    
    <glyph glyph-name="tixian" unicode="&#58894;" d="M631.8 441.7h-239.7c-8.2 0-15 6.7-15 15s6.8 15 15 15h239.7c8.2 0 15-6.7 15-15s-6.7-15-15-15zM671.2 326.6h-318.4c-8.3 0-15 6.8-15 15 0 8.3 6.7 15 15 15h318.5c8.2 0 15-6.7 15-15-0.1-8.2-6.8-15-15.1-15zM512 102c-8.3 0-15 6.7-15 15v339.7c0 8.3 6.7 15 15 15s15-6.7 15-15v-339.7c0-8.3-6.7-15-15-15zM511.6 441.7c-3.9 0-7.8 1.5-10.7 4.4l-131.1 131.1c-5.9 5.9-5.9 15.4 0 21.2 5.8 5.9 15.4 5.9 21.2 0l131.2-131.2c5.8-5.9 5.8-15.4 0-21.2-2.9-2.9-6.8-4.3-10.6-4.3v0zM511.6 441.7c-3.9 0-7.8 1.5-10.7 4.4-5.8 5.8-5.8 15.4 0 21.2l132 132c5.8 5.9 15.4 5.9 21.2 0 5.8-5.9 5.8-15.4 0-21.2l-132-132c-2.8-3-6.7-4.4-10.5-4.4v0zM963 113.2h-352.7c-8.2 0-15 6.8-15 15 0 8.3 6.8 15 15 15h352.7c8.2 0 15-6.7 15-15 0-8.1-6.7-15-15-15zM963 113.2c-3.9 0-7.8 1.6-10.6 4.4l-130.6 130.7c-5.9 5.9-5.9 15.5 0 21.2 5.8 5.9 15.4 5.9 21.2 0l130.6-130.6c5.8-5.7 5.8-15.3 0-21.2-2.9-3-6.8-4.5-10.6-4.5v0zM832.4-17.4c-3.9 0-7.7 1.6-10.6 4.4-5.9 5.9-5.9 15.5 0 21.2l130.6 130.6c5.8 5.9 15.3 5.9 21.2 0 5.8-5.7 5.8-15.3 0-21.2l-130.6-130.6c-2.9-2.9-6.7-4.4-10.6-4.4v0zM512-82c-257 0-466 209-466 466s209 466 466 466c56.6 0 112.2-10.1 164.7-30 180.2-68.1 301.3-243.4 301.3-436 0-8.2-6.8-15-15-15-8.3 0-15 6.8-15 15 0 180.3-113.2 344.2-281.9 407.9-49.2 18.6-101.1 28.1-154.1 28.1-240.5 0-436-195.6-436-436 0-240.2 195.6-436 436-436 8.2 0 15-6.7 15-15 0-8.3-6.8-15-15-15v0zM512-94.8v0c-264 0-478.8 214.8-478.8 478.8s214.8 478.8 478.8 478.8c58.3 0 115.2-10.4 169.3-30.8 185.2-70 309.6-250 309.6-448 0-15.3-12.5-27.8-27.8-27.8s-27.8 12.5-27.8 27.8c0 175-109.9 334.1-273.6 396-47.9 18-98.3 27.2-149.7 27.2-233.3 0-423.2-189.9-423.2-423.2s189.9-423.2 423.2-423.2c15.3 0 27.8-12.5 27.8-27.8 0-15.3-12.5-27.8-27.8-27.8zM512 837.2c-249.9 0-453.2-203.3-453.2-453.2s203.3-453.2 453.2-453.2c1.2 0 2.2 1 2.2 2.3 0 1.2-1 2.2-2.2 2.2-247.5-0.1-448.8 201.3-448.8 448.7 0 247.5 201.3 448.8 448.8 448.8 54.5 0 107.9-9.7 158.7-28.9 173.5-65.5 290.2-234.3 290.2-419.9 0-1.2 1-2.2 2.2-2.2 1.2 0 2.2 1 2.2 2.2 0 187.4-117.8 357.8-293 424.1-51.2 19.3-105.2 29.1-160.3 29.1zM832.4-30.2c-7.3 0-14.2 2.9-19.6 8.1-5.4 5.4-8.3 12.5-8.3 20 0 7.4 3 14.4 8.3 19.5l83 83h-285.5c-15.3 0-27.8 12.5-27.8 27.8s12.5 27.8 27.8 27.8h285.7l-83.2 83.2c-5.3 5.3-8.2 12.4-8.2 19.9 0 7.4 3 14.4 8.3 19.5 5.1 5.1 12.1 8.1 19.5 8.1 7.5 0 14.5-2.9 19.7-8.2l130.3-130.3c0.1-0.1 0.2-0.2 0.3-0.3 2.8-2.8 5-6.1 6.4-9.8 1.2-3.1 1.8-6.4 1.8-9.9 0-8.2-3.6-15.6-9.3-20.7l-129.6-129.5c-5.3-5.3-12.2-8.2-19.6-8.2zM932.1 100.4l-101.3-101.2c-0.6-0.6-0.7-1.1-0.7-1.5s0.1-1.1 0.7-1.6c0.8-0.8 2.2-0.9 3.1 0l104.4 104.4h-6.2zM959.9 128.3l1.5-1.6c0.5-0.5 1.1-0.7 1.6-0.7 0.4 0 1 0.2 1.5 0.7 0.4 0.4 0.6 1 0.6 1.4 0 0.1 0 0.2 0 0.2 0 0.3-0.1 0.7-0.3 1-0.4 0.6-1.1 1.1-1.9 1.1h-0.7c-0.3-0.1-0.6-0.3-0.9-0.5l-1.4-1.6zM610.3 130.4c-1.2 0-2.2-1-2.2-2.2 0-1.1 1.1-2.2 2.2-2.2h311.2l2.2 2.2-2.1 2.2h-311.3zM932.1 156h6.2l-104.4 104.5c-1.1 1.1-2 1.1-3 0.1-0.5-0.5-0.7-1-0.7-1.5 0-0.4 0.1-1.1 0.7-1.6l101.2-101.5zM512 89.2c-15.3 0-27.8 12.5-27.8 27.8v196.8h-131.4c-15.3 0-27.8 12.5-27.8 27.8s12.5 27.8 27.8 27.8h131.4v59.5h-92.1c-15.3 0-27.8 12.5-27.8 27.8s12.5 27.8 27.8 27.8h52.3l-83.7 83.7c-5.3 5.3-8.2 12.3-8.2 19.8 0 7.4 2.9 14.4 8.2 19.6 5.1 5.2 12.1 8.1 19.6 8.1 7.5 0 14.5-2.9 19.7-8.2l111.5-111.5 112.4 112.4c5.2 5.3 12.2 8.2 19.6 8.2 7.5 0 14.5-2.9 19.7-8.2 10.7-10.9 10.7-28.5-0.1-39.2l-84.6-84.6h53.2c15.3 0 27.8-12.5 27.8-27.8s-12.5-27.8-27.8-27.8h-92.1v-59.5h131.4c15.3 0 27.8-12.5 27.8-27.8s-12.5-27.8-27.8-27.8l-131.2-0v-196.9c0-15.4-12.5-27.8-27.8-27.8zM509.8 313.8v-196.8c0-1.3 0.9-2.2 2.2-2.2 1.2 0 2.2 0.9 2.2 2.2v196.8h-4.4zM539.8 339.4h131.4c1.2 0 2.2 1 2.2 2.2s-1 2.2-2.2 2.2l-131.4-0v-4.4zM509.8 339.4h4.4v4.4h-4.4l-0-4.4zM352.8 343.8c-1.2 0-2.2-0.9-2.2-2.2 0-1.2 1-2.2 2.2-2.2h131.4v4.4l-131.4 0zM509.8 369.4h4.4v59.5h-2.2c-0.1 0-0.2 0-0.4 0v0h-1.8v-59.5zM548.6 454.5h83.2c1.2 0 2.2 1 2.2 2.2s-1 2.2-2.2 2.2h-78.8l-4.4-4.4zM509.8 455.3c0 0 0.1-0.1 0.1-0.1 0.6-0.6 1.3-0.7 1.8-0.7 0.1 0 0.2 0 0.4 0 0.3 0.1 0.6 0.2 0.8 0.4l0.5 0.5c0.6 0.9 0.5 2.1-0.3 2.9l-0.6 0.6c-1.3 0.3-2.7-0.7-2.7-2.1v-1.5zM392.1 458.9c-1.2 0-2.2-1-2.2-2.2s1-2.2 2.2-2.2h82.3l-4.4 4.4h-77.9zM536.1 484.5h6.3l102.7 102.7c0.9 0.9 0.8 2.3-0.1 3.2-1 1-2 1-3 0l-105.9-105.9zM480.6 484.5h6.2l-104.9 104.9c-1.1 1.1-2 1.1-3 0.1-0.5-0.5-0.7-1-0.7-1.6 0-0.4 0.1-1 0.7-1.6l101.7-101.8z"  horiz-adv-x="1024" />

    
    <glyph glyph-name="dianhua" unicode="&#58907;" d="M245.817-128h0.023l5.283 0.117c122.933 6.29 288.947 121.996 444.138 309.521l57.323 69.241C907.775 438.416 989.08 621.577 970.07 740.844 956.647 824.99 831.553 896 760.069 896c-35.209 0-47.965-17.523-52.421-27.988-40.462-71.906-90.535-196.965-90.764-241.82l-0.018-3.192 1.148-2.981c8.925-23.578 28.89-34.869 46.512-44.837 23.204-13.113 36.398-21.722 38.009-46.518 0.474-7.525-6.015-41.751-108.398-167.964l-43.777-52.855C447.69 186.68 415.392 173.638 407.825 172.555c-24.755-3.444-36.416 7.414-54.219 26.934-13.558 14.864-28.937 31.73-54.307 35.443l-3.215 0.463-3.157-0.674c-44.714-9.429-159.162-83.186-224.133-137.944-9.376-6.225-25.751-24.708-12.785-65.54C76.342-32.891 164.997-128 245.817-128"  horiz-adv-x="1024" />

    
    <glyph glyph-name="shoucang" unicode="&#58891;" d="M707.584 802.816c-77.312 0-148.992-38.912-196.608-102.912-47.104 64-119.296 102.912-196.608 102.912-139.264 0-252.416-123.904-252.416-275.968 0-90.624 40.448-154.624 73.216-205.824 94.72-148.992 333.312-333.824 343.552-341.504 9.728-7.68 20.992-11.264 32.256-11.264s22.528 3.584 32.256 11.264c10.24 7.68 248.32 193.024 343.552 341.504 32.768 51.2 73.216 115.2 73.216 205.824 0 152.064-113.152 275.968-252.416 275.968z"  horiz-adv-x="1024" />

    
    <glyph glyph-name="weixin" unicode="&#58899;" d="M579.799603 384.134999c-11.666932 0-23.339863-10.835937-23.339864-24.174858 0-10.837936 11.666932-21.674873 23.339864-21.674873 17.512897 0 30.016824 10.836937 30.016824 21.674873 0 13.337922-12.503927 24.174858-30.015824 24.174858zM503.099052 496.69234c18.341893 0 30.015824 11.667932 30.015824 29.180829 0 18.342893-11.672932 29.179829-30.015824 29.179829-17.507897 0-34.1838-10.837936-34.1838-29.179829 0-17.513897 16.675902-29.180829 34.1838-29.180829zM512.269998 895.440003C229.651654 895.440003 0.547997 666.336346 0.547997 383.719002c0-282.615344 229.103658-511.719002 511.721001-511.719002 282.616344 0 511.719002 229.103658 511.719002 511.719002C1023.989 666.337346 794.886342 895.440003 512.269998 895.440003z m-96.711433-641.364242c-30.849819 0-53.361687 4.998971-82.541516 13.339922l-84.206507-42.524751 24.181858 71.70558c-59.195653 41.681756-94.215448 94.209448-94.215448 158.407072 0 113.388336 106.718375 200.096828 236.782613 200.096828 115.054326 0 217.604725-68.367599 237.612608-165.084033-8.335951 1.67199-15.841907 2.501985-22.509868 2.501985-113.389336 0-200.928823-85.039502-200.928823-187.588901 0-17.505897 2.501985-33.346805 6.670961-50.023707-6.669961-0.829995-14.175917-0.829995-20.845878-0.829995z m347.667963-81.705521l16.671902-60.032648-63.362628 35.84979c-24.176858-4.997971-47.522722-12.502927-71.69958-12.502927-111.722345 0-200.096828 76.701551-200.096828 171.745994 0 95.045443 88.375482 171.748994 200.096828 171.748993 105.88238 0 200.927823-76.703551 200.927822-171.748993 0-53.354687-35.84979-100.877409-82.537516-135.059209zM338.021019 555.052998c-17.508897 0-35.84979-10.837936-35.84979-29.179829 0-17.512897 18.340893-29.185829 35.84979-29.185829 16.675902 0 30.014824 11.672932 30.014825 29.185829 0 18.341893-13.338922 29.179829-30.014825 29.179829z m372.680817-170.918999c-12.508927 0-23.346863-10.834937-23.346863-24.173858 0-10.837936 10.837936-21.674873 23.346863-21.674873 16.671902 0 29.179829 10.836937 29.179829 21.674873 0 13.337922-12.507927 24.174858-29.179829 24.174858z m0 0"  horiz-adv-x="1024" />

    
    <glyph glyph-name="yangsheng" unicode="&#58983;" d="M770.687 343.187c-0.769 12.18-1.918 24.251-3.789 36.085H98.181c-3.073-19.389-4.748-39.279-4.748-59.596 0-135.303 70.889-253.072 175.511-314.129v-83.479h335.859v88.745c35.759 22.359 67.207 51.548 92.967 85.728 19.972-6.959 42.002-10.884 65.21-10.884 89.749 0 162.51 57.717 162.51 128.918 0 69.131-68.654 125.39-154.803 128.612z m-10.412-226.104a186.834 186.834 0 0 0-44.602 5.408c34.204 54.77 54.487 120.041 55.75 190.267 70.463-4.063 125.902-46.179 125.902-97.636 0-54.151-61.361-98.039-137.05-98.039zM442.292 435.606c-6.499 62.833 19.502 89.926 69.335 128.93s128.93 43.332 112.679 170.091C608.056 861.387 382.702 854.884 382.702 854.884s85.592-72.583 94.257-112.681c8.666-40.093-87.756-78-115.922-156.008-28.168-78.006 81.255-150.589 81.255-150.589z"  horiz-adv-x="1024" />

    
    <glyph glyph-name="renwu" unicode="&#58972;" d="M722.794 450.622L442.403 170.23l-141.197 141.2c-15.62 15.619-40.947 15.621-56.568 0-15.621-15.621-15.621-40.947 0-56.568l169.481-169.483c7.811-7.812 18.046-11.716 28.284-11.716 10.237 0 20.474 3.905 28.284 11.716l308.675 308.675c15.621 15.621 15.621 40.947 0 56.568s-40.947 15.621-56.568 0zM852.153 732.996H736.204c-0.681 46.657-38.378 84.514-84.987 85.398-4.558 43.546-41.485 77.6-86.219 77.6H458.999c-44.732 0-81.66-34.054-86.218-77.6-46.605-0.888-84.307-38.744-84.987-85.398H171.846c-46.965 0-85.038-38.073-85.038-85.039v-690.912c0-46.966 38.073-85.039 85.038-85.039h680.307c46.964 0 85.038 38.073 85.038 85.039V647.957c0 46.966-38.074 85.039-85.038 85.039z m-477.699 25.415h27.854c16.567 0 29.999 13.431 29.999 30v20.89c0 14.719 11.975 26.693 26.692 26.693h105.999c14.719 0 26.693-11.975 26.693-26.693v-20.891c0-16.568 13.432-30 30-30h27.854c14.29 0 25.99-11.288 26.66-25.415 0.02-0.424 0.032-0.849 0.032-1.278V662.689c0-14.718-11.974-26.692-26.692-26.692H374.454c-14.719 0-26.693 11.974-26.693 26.692V731.717c0 0.429 0.012 0.854 0.032 1.278 0.669 14.128 12.371 25.416 26.661 25.416z m502.737-801.366c0-13.806-11.231-25.039-25.038-25.039H171.846c-13.807 0-25.039 11.233-25.039 25.039V647.957c0 13.807 11.232 25.04 25.039 25.04h115.916v-10.307c0-47.802 38.89-86.691 86.692-86.691h275.091c47.803 0 86.691 38.889 86.691 86.691v10.307h115.917c13.807 0 25.038-11.233 25.038-25.04v-690.912z"  horiz-adv-x="1024" />

    
    <glyph glyph-name="xunhuan" unicode="&#59000;" d="M250.917717 275.626667a31.675733 31.675733 0 0 0 43.349334 11.656533l21.333333-12.356267c7.7312-4.488533 16.469333 4.078933 12.1344 11.895467l-83.592533 151.057067a70.5024 70.5024 0 0 1-62.8224 36.369066l-172.612267-2.6624c-8.942933-0.136533-12.014933-11.963733-4.283733-16.452266l21.213866-12.288a31.675733 31.675733 0 0 0 11.554134-43.246934l-1.160534-1.9968a70.5536 70.5536 0 0 1 0-70.536533l113.834667-197.154133c7.799467-13.499733 27.8528-10.871467 32.170667 4.113066a389.239467 389.239467 0 0 0 40.840533 92.706134l28.040533 48.896zM544.737451 226.7136H286.877184c-7.082667-8.8064-70.980267-91.5456-64.3584-198.161067 1.348267-21.623467 16.1792-41.0112 37.154133-46.4896 5.666133-1.4848 11.5712-2.2528 17.595734-2.2528h267.485866a35.2768 35.2768 0 0 1 35.2768 35.2768V191.4368a35.293867 35.293867 0 0 1-35.293866 35.2768zM163.689984 548.130133l151.517867-87.483733a35.259733 35.259733 0 0 1 48.1792 12.9024l130.082133 225.314133c-7.1168 16.042667-49.339733 103.6288-140.373333 146.807467-15.786667 7.492267-34.594133 7.5776-49.476267-1.570133a70.314667 70.314667 0 0 1-24.064-24.712534L150.770517 596.309333a35.2768 35.2768 0 0 1 12.919467-48.1792zM524.718251 752.981333l33.314133-57.053866a31.6928 31.6928 0 0 0-11.502933-43.400534l-18.926934-10.939733c-7.748267-4.471467-4.676267-16.298667 4.266667-16.452267l172.612267-2.798933a70.536533 70.536533 0 0 1 62.839466 36.334933l83.694934 150.9888c4.334933 7.816533-4.386133 16.384-12.1344 11.912534l-23.825067-13.7728a31.675733 31.675733 0 0 0-43.281067 11.588266 70.536533 70.536533 0 0 1-61.098666 35.2768H482.768384c-15.581867 0-23.3472-18.688-12.544-29.9008a392.874667 392.874667 0 0 0 54.493867-71.7824zM1023.832917 369.92a70.058667 70.058667 0 0 1-9.130666 28.7744l-129.757867 224.733867a35.2768 35.2768 0 0 1-48.1792 12.9024l-152.4736-88.029867a35.2768 35.2768 0 0 1-12.919467-48.1792l125.525334-217.3952c10.052267-1.706667 112.1792-17.169067 201.796266 39.099733 16.418133 10.308267 26.897067 28.7744 25.1392 48.093867zM927.320917 236.202667c-37.9904-8.686933-72.704-10.103467-98.2016-9.3184l0.085334-0.1536h-0.341334l0.017067-0.017067h-58.743467a31.675733 31.675733 0 0 0-31.675733 31.675733v23.381334c0 8.942933-11.776 12.202667-16.384 4.539733l-88.814933-148.036267a70.570667 70.570667 0 0 1 0-72.584533l88.814933-148.036267c4.608-7.662933 16.384-4.4032 16.384 4.539734v25.9584c0 17.493333 14.1824 31.675733 31.675733 31.675733h2.696534a70.5536 70.5536 0 0 1 61.098666 35.2768l112.708267 195.2256c7.748267 13.346133-4.2496 29.320533-19.319467 25.873067z"  horiz-adv-x="1024" />

    
    <glyph glyph-name="web-icon-" unicode="&#59158;" d="M191.584 525.12c45.792 0 86.464-30.528 99.168-73.76l15.264-33.056c30.528 10.176 134.784 25.44 200.896 25.44 63.584 0 167.84-15.264 198.368-25.44l17.792 38.144c15.264 40.704 55.936 66.112 96.64 66.112h10.176c0 78.848-63.584 150.048-144.96 150.048H326.368c-78.848 0-144.96-68.672-144.96-150.048 5.088 0.032 7.616 2.56 10.176 2.56z m0 0M822.24 489.536c-30.528 0-55.936-17.792-63.584-45.76l-33.056-73.76c-2.528 2.56-101.728 43.232-213.6 43.232s-216.16-40.672-218.688-43.232l-30.528 68.672c-7.616 27.968-35.616 50.848-66.112 50.848A68.384 68.384 0 0 1 128 420.864c0-33.056 20.352-58.496 50.88-66.112l12.704-109.344c12.704-45.792 81.376-40.704 81.376-40.704h478.08s66.112-5.088 81.376 40.704l12.736 109.344c27.968 7.648 50.848 35.616 50.848 66.112-5.088 35.616-35.616 68.672-73.76 68.672zM204.288 181.824v-45.76c0-15.264 15.264-38.144 33.056-38.144h30.528c15.264 0 30.528 20.352 30.528 38.144v33.056h-30.528c-48.32-2.56-63.584 12.704-63.584 12.704z m511.168-15.264v-33.056c0-15.264 12.704-38.144 30.528-38.144h30.528c15.264 0 40.704 20.352 40.704 38.144v50.848s-22.88-17.792-68.672-17.792h-33.088z m0 0"  horiz-adv-x="1024" />

    
    <glyph glyph-name="xuanzhuan" unicode="&#59134;" d="M496.8-28.8c-40 0-80 5.6-119.2 17.6l-88 38.4c-79.2 45.6-139.2 113.6-174.4 196.8-20.8 50.4-32 103.2-32.8 157.6-0.8 53.6 9.6 105.6 28.8 155.2 40.8 104 120 184.8 223.2 228.8 53.6 20.8 108.8 32 164 32h3.2c53.6 0 106.4-11.2 155.2-31.2 85.6-36 155.2-98.4 200-180.8l35.2 15.2c5.6 3.2 12.8 6.4 20.8 6.4 3.2 0 6.4-0.8 9.6-1.6 7.2-3.2 12.8-8 15.2-15.2 3.2-7.2 3.2-14.4 0-21.6l-50.4-125.6c-4-10.4-14.4-17.6-26.4-17.6-4 0-7.2 0.8-10.4 2.4l-125.6 50.4c-14.4 5.6-21.6 22.4-16 36.8 2.4 6.4 7.2 11.2 12.8 14.4l3.2 1.6 50.4 20.8c-14.4 24.8-32.8 48-53.6 68-30.4 29.6-65.6 52.8-104.8 68.8s-80.8 24-123.2 24c-44 0-86.4-8.8-127.2-25.6s-76.8-41.6-107.2-73.6c-29.6-30.4-52-65.6-68-104.8s-24-80.8-24-123.2c0-44 8.8-86.4 26.4-127.2 17.6-40.8 41.6-76.8 73.6-107.2 30.4-29.6 65.6-52.8 104.8-68.8s80.8-24 123.2-24c44 0 86.4 8.8 127.2 25.6s76.8 41.6 107.2 73.6c5.6 6.4 12.8 9.6 20 9.6 14.4 0 29.6-12.8 37.6-31.2 8-19.2 4-38.4-8.8-50.4-36-33.6-76.8-60-122.4-79.2-44.8-19.2-92.8-29.6-140.8-32-5.6-3.2-12-3.2-18.4-3.2z"  horiz-adv-x="1024" />

    
    <glyph glyph-name="xuanzhuan1" unicode="&#59136;" d="M527.2-28.8c40 0 80 5.6 119.2 17.6l88 38.4c79.2 45.6 139.2 113.6 174.4 196.8 20.8 50.4 32 103.2 32.8 157.6 0.8 53.6-9.6 105.6-28.8 155.2-40.8 104-120 184.8-223.2 228.8-53.6 20.8-108.8 32-164 32h-3.2c-53.6 0-106.4-11.2-155.2-31.2-85.6-36-155.2-98.4-200-180.8l-35.2 15.2c-5.6 3.2-12.8 6.4-20.8 6.4-3.2 0-6.4-0.8-9.6-1.6-7.2-3.2-12.8-8-15.2-15.2-3.2-7.2-3.2-14.4 0-21.6l50.4-125.6c4-10.4 14.4-17.6 26.4-17.6 4 0 7.2 0.8 10.4 2.4l125.6 50.4c14.4 5.6 21.6 22.4 16 36.8-2.4 6.4-7.2 11.2-12.8 14.4l-3.2 1.6-50.4 20.8c14.4 24.8 32.8 48 53.6 68 30.4 29.6 65.6 52.8 104.8 68.8s80.8 24 123.2 24c44 0 86.4-8.8 127.2-25.6s76.8-41.6 107.2-73.6c29.6-30.4 52-65.6 68-104.8s24-80.8 24-123.2c0-44-8.8-86.4-26.4-127.2-17.6-40.8-41.6-76.8-73.6-107.2-30.4-29.6-65.6-52.8-104.8-68.8s-80.8-24-123.2-24c-44 0-86.4 8.8-127.2 25.6s-76.8 41.6-107.2 73.6c-5.6 6.4-12.8 9.6-20 9.6-14.4 0-29.6-12.8-37.6-31.2-8-19.2-4-38.4 8.8-50.4 36-33.6 76.8-60 122.4-79.2 44.8-19.2 92.8-29.6 140.8-32 5.6-3.2 12-3.2 18.4-3.2z"  horiz-adv-x="1024" />

    
    <glyph glyph-name="hb" unicode="&#58901;" d="M507.18778043 477.88537277s2.86455429 0.31690297 4.45528292-1.59072864 3.49836022-28.63311531 10.50129446-35.9529525c6.99672045-7.31983721 35.31914657-3.18145726 35.31914656-12.72582902 0-7.63674017-26.31537398-8.45695963-35.2259398-15.77679682s-3.8152632-38.17748707-14.72666738-37.04036466c-8.54395259 0.89478485-2.54765132 25.45165805-13.042732 35.31914657-10.50129445 9.86127474-35.95295251 7.95364315-35.95295251 16.86420897s26.09167777 3.49836022 34.99602983 13.68275172c8.90435205 10.17817771 5.08287507 37.22056438 13.67653792 37.22056438zM556.74684814 460.61105411s1.93248673 0.21748243 3.00747131-1.07498458c1.07498459-1.28625323 2.36123781-19.3310811 7.08992721-24.27103914 4.72247562-4.93995805 23.84228807-2.14996916 23.84228807-8.59366286 0-5.15744048-17.76520761-5.71046722-23.78015024-10.65042528-6.01494262-4.93995805-2.57872023-25.77477481-9.94205392-25.00426561-5.76639127 0.60273701-1.72121808 17.18111195-8.80493152 23.84228806-7.0899272 6.66117613-24.27103915 5.36870912-24.27103915 11.38365175 0 6.01494262 17.60986302 2.36123781 23.62480566 9.23368259 6.01494262 6.87865856 3.43622239 25.13475508 9.23368258 25.13475507zM472.4692998 492.32206356s2.90805077 0.32311675 4.52363454-1.61558377c1.61558377-1.93870051 3.55428428-29.08050773 10.66285283-36.51219304 7.10856855-7.43168531 35.86595954-3.23116752 35.86595954-12.9246701 0-7.75480206-26.72548371-8.58744908-35.77275278-16.01913439-9.04726907-7.43168531-3.87740103-38.77401031-14.95657738-37.61824654-8.67444205 0.90721243-2.58493403 25.84934021-13.24778685 35.86595954s-36.51219305 8.07791882-36.51219305 17.12518788 26.49557371 3.55428428 35.54284278 13.89402037c9.04726907 10.33973609 5.16986804 37.80466005 13.89402037 37.80466005zM551.68675681 460.62348168m-30.06228555 0a30.06228556 30.06228556 0 1 1 60.12457111 0 30.06228556 30.06228556 0 1 1-60.12457111 0ZM609.06897817 452.23280237m-29.65838962 0a29.65838962 29.65838962 0 1 1 59.31677924 0 29.65838962 29.65838962 0 1 1-59.31677924 0ZM148.69802855 651.37007123a380.51347266 206.7015149 0 1 1 761.02694533 0 380.51347266 206.7015149 0 1 1-761.02694533 0ZM737.23655204 615.90800762m-138.10755658 0a138.1075566 138.1075566 0 1 1 276.21511319 0 138.1075566 138.1075566 0 1 1-276.21511319 0ZM737.23655204 615.90800762m-115.63851472 0a115.63851472 115.63851472 0 1 1 231.27702946 0 115.63851472 115.63851472 0 1 1-231.27702946 0ZM783.16884118 600.68423755h-34.51135468v24.04112914h34.51135468a11.42093445 11.42093445 0 0 1 0 22.84186891h-19.77847352l12.51456038 21.67367755a11.42093445 11.42093445 0 0 1-19.77847352 11.41472067l-18.88368869-32.7155712-18.88368867 32.7155712a11.42093445 11.42093445 0 0 1-19.77847352-11.41472067l12.51456037-21.67367755h-19.77847352a11.42093445 11.42093445 0 0 1 0-22.84186891h34.51135467v-24.04112914h-34.51135467a11.42093445 11.42093445 0 0 1 0-22.84186889h34.51135467v-20.96530621a11.42093445 11.42093445 0 0 1 22.84186891 0v20.96530621h34.51135469a11.42093445 11.42093445 0 1 1-0.01242758 22.84186889zM321.1802366 615.90800762m-138.10755659 0a138.1075566 138.1075566 0 1 1 276.2151132 0 138.1075566 138.1075566 0 1 1-276.2151132 0ZM321.1802366 615.90800762m-115.63851472 0a115.63851472 115.63851472 0 1 1 231.27702945 0 115.63851472 115.63851472 0 1 1-231.27702945 0ZM367.10631196 600.68423755H332.59495727v24.04112914h34.51135469a11.42093445 11.42093445 0 0 1 0 22.84186891h-19.77847353l12.51456038 21.67367755a11.42093445 11.42093445 0 0 1-19.77847354 11.41472067l-18.88368867-32.7155712-18.88368867 32.7155712a11.42093445 11.42093445 0 0 1-19.77847354-11.41472067l12.51456039-21.67367755h-19.77847353a11.42093445 11.42093445 0 0 1 0-22.84186891h34.51135469v-24.04112914h-34.51135469a11.42093445 11.42093445 0 0 1 0-22.84186889h34.51135469v-20.96530621a11.42093445 11.42093445 0 0 1 22.84186889 0v20.96530621h34.5113547a11.42093445 11.42093445 0 1 1-0.01242757 22.84186889zM332.81243969 674.14980229a196.39284773 196.34935125 0 1 1 392.78569549 0 196.39284773 196.34935125 0 1 1-392.78569549 0ZM529.21150122 674.14980229m-164.39807545 0a164.39807545 164.39807545 0 1 1 328.7961509 0 164.39807545 164.39807545 0 1 1-328.7961509 0ZM594.50594038 652.50097986h-49.06403612v34.17581038h49.06403612a16.23040304 16.23040304 0 0 1 0 32.47323363h-28.11737127l17.79006275 30.81415338a16.2428306 16.2428306 0 0 1-28.11737126 16.23661683l-26.84975938-46.51017103-26.84975939 46.51017103a16.23040304 16.23040304 0 1 1-28.11737126-16.23661683l17.79006275-30.81415338h-28.11737126a16.23040304 16.23040304 0 0 1 0-32.47323363h49.06403612v-34.17581038h-49.06403612a16.23040304 16.23040304 0 0 1 0-32.46701985h49.06403612v-29.80752043a16.23661682 16.23661682 0 0 1 32.47323364 0v29.80752043h49.06403612a16.23040304 16.23040304 0 1 1-0.01242756 32.46701985zM529.21150122 575.2698622c-154.8474899 0-292.50765407 34.44300307-380.51347267 87.89397049v-677.10979641c0-42.67005269 34.59213388-77.26218657 77.26218658-77.26218657h606.50878597c42.67005269 0 77.26218657 34.59213388 77.26218657 77.26218657V663.15761891c-88.01203237-53.44475363-225.67841034-87.8877567-380.51968645-87.88775671zM720.12379172 99.26917536999997a46.23055075 46.23055075 0 0 0-46.23055075-46.23055076H384.52354767a46.23055075 46.23055075 0 0 0-46.23055075 46.23055076v289.3696933a46.23055075 46.23055075 0 0 0 46.23055075 46.23055075h289.3696933a46.23055075 46.23055075 0 0 0 46.23055075-46.23055075v-289.3696933zM383.74061092 253.86811392000004h49.96503478v-49.96503477h-49.96503478z m0-96.28257849h149.03760214v-49.96503476H383.74061092z m-0.40389592 222.70822172h64.4742197v-49.96503475H383.336715z m101.54565328 0h190.19770538v-49.96503475H484.88236828zM360.73472 312.90880000000004h41.83552v-41.16992h-41.83552zM434.10954163 291.19431261h50.77282665v-49.96503475h-50.77282665z m144.6320295-133.60877718h49.96503475v-49.96503476h-49.96503475z m45.56567589 58.65811817h50.77282664v-49.96503478h-50.77282664z m-40.75620731 87.85047399h91.52903395v-49.96503476h-91.52903395zM484.54061018 241.22927786000002h50.77282663v-49.96503476h-50.77282663zM532.77821306 332.72724289999996h50.77282665v-176.0489199h-50.77282665z"  horiz-adv-x="1024" />

    
    <glyph glyph-name="icon_AR_shengyin-guan" unicode="&#58996;" d="M509.463952 719.885526c40.858558 31.277931 72.981838 13.525592 72.981838-35.786462v-559.903137c0-49.312053-32.12328-62.837644-68.191525-31.27793l-163.997798 134.128783H259.240506c-50.157402 0-91.01596 40.576775-91.01596 89.325262v184.004403c0 49.312053 40.858558 89.325261 91.01596 89.325261h86.50743l163.716016 130.18382zM887.898734 300.873968c5.35388 8.171712 5.072097 18.879472-0.563566 27.051183l-60.583379 60.58338c-9.580627 9.580627-9.580627 25.078701 0 34.377545l57.201981 57.201981c9.580627 9.580627 9.580627 25.078701 0 34.377546l-1.972482 1.972482c-9.580627 9.580627-25.078701 9.580627-34.377546 0L790.401761 459.236103c-9.580627-9.580627-25.078701-9.580627-34.377545 0L698.822234 516.438085c-9.580627 9.580627-25.078701 9.580627-34.377545 0l-1.972482-1.972482c-9.580627-9.580627-9.580627-25.078701 0-34.377546l57.201981-57.201981c9.580627-9.580627 9.580627-25.078701 0-34.377545l-57.201981-57.201982c-9.580627-9.580627-9.580627-25.078701 0-34.377545l1.972482-1.972482c7.608145-7.608145 19.161255-9.017061 28.178316-4.508531 1.972482 1.127133 3.944964 2.536048 5.635663 4.226748l57.765548 57.483764c1.127133 1.127133 2.536048 2.254265 3.944964 3.099615 6.762796 4.508531 15.216291 5.072097 22.542653 2.254265 3.099615-1.127133 5.635663-3.099615 8.171711-5.35388l57.765548-57.483764c1.690699-1.690699 3.663181-3.099615 5.917446-4.226748 9.017061-4.508531 20.570171-3.099615 28.178316 4.508531l5.35388 5.917446z"  horiz-adv-x="1024" />

    
    <glyph glyph-name="icon_AR_shengyin-kai" unicode="&#58997;" d="M768.986241 209.294441c-13.525592 13.525592-13.525592 31.277931 0 44.803523 86.50743 85.098514 86.50743 219.509081 0 304.607595-13.525592 13.525592-13.525592 31.277931 0 44.803522s32.12328 13.525592 45.367089 0c54.38415-54.102367 86.50743-121.166758 86.507429-192.739681s-32.12328-143.427628-86.507429-192.457898c-4.508531-4.508531-13.525592-8.735278-22.824436-8.735277-9.017061-9.298844-18.034122-4.790314-22.542653-0.281784z m-91.01596 49.03027c-9.298844 0-18.034122 4.508531-22.824436 8.735278-13.525592 13.525592-13.525592 31.277931 0 44.803522 54.665933 53.5388 54.665933 134.128784 0 188.231151-13.525592 13.525592-13.525592 31.277931 0 44.803522 13.525592 13.525592 32.12328 13.525592 45.367088 0 81.717116-76.081453 81.717116-196.966428 0-273.047881-9.017061-8.735278-13.807375-13.525592-22.542652-13.525592zM509.463952 719.885526c40.858558 31.277931 72.981838 13.525592 72.981838-35.786462v-559.903137c0-49.312053-32.12328-62.837644-68.191525-31.27793l-163.997798 134.128783H259.240506c-50.157402 0-91.01596 40.576775-91.01596 89.325262v184.004403c0 49.312053 40.858558 89.325261 91.01596 89.325261h86.50743l163.716016 130.18382z"  horiz-adv-x="1024" />

    
    <glyph glyph-name="jiushui" unicode="&#59307;" d="M746 442.5v61.4c63 0 114.1 51.1 114.1 114.1 0 63-51.1 114.1-114.1 114.1-41.5 0-77.5-22.4-97.5-55.6h-67.3c24.2 68 88.5 117 164.8 117 96.9 0 175.5-78.6 175.5-175.5 0.1-96.9-78.5-175.5-175.5-175.5zM102.4 618h702.1L512 267v-234h175.5v-58.5h-468V33H395V267L102.4 618z m0 0"  horiz-adv-x="1024" />

    
    <glyph glyph-name="suo" unicode="&#58980;" d="M775.808-96.63999999999999H249.152c-81.024 0-146.944 69.12-146.944 154.048h59.84c0-51.968 39.104-94.208 87.168-94.208h526.656c48 0 87.104 42.24 87.104 94.208V401.984c0 51.968-39.104 94.208-87.104 94.208h-59.2V594.624c0 121.024-78.656 196.224-205.248 196.224-125.248 0-203.072-75.2-203.072-196.224v-98.368h-59.2c-48.064 0-87.168-42.24-87.168-94.208v-202.432h-59.776V401.984c0 84.672 65.536 153.664 146.304 154.048v38.592C248.512 747.7760000000001 354.176 850.688 511.36 850.688c158.528 0 265.088-102.912 265.088-256.064v-38.592c80.704-0.32 146.24-69.312 146.24-154.048v-344.576c0.064-84.928-65.856-154.048-146.88-154.048zM447.04 365.88800000000003v-125.056h36.16v-121.344h57.216v121.344h36.224V365.88800000000003zM278.464 555.904h487.552v-59.264H278.464z"  horiz-adv-x="1024" />

    
    <glyph glyph-name="guanbi" unicode="&#58900;" d="M512-128a512 512 0 1 0 512 512 512 512 0 0 0-512-512z m0 950.857A438.857 438.857 0 1 1 950.857 384 438.857 438.857 0 0 1 512 822.857zM365.714 183.589a36.571 36.571 0 0 0-25.6 62.171L650.24 555.886a36.571 36.571 0 0 0 51.931-51.932L391.314 193.83a36.571 36.571 0 0 0-25.6-10.24zM675.84 183.589a36.571 36.571 0 0 0-25.6 10.971L340.114 504.686a36.571 36.571 0 0 0 51.932 51.931L702.17 245.76a36.571 36.571 0 0 0-25.6-62.171z"  horiz-adv-x="1024" />

    
    <glyph glyph-name="quxiao" unicode="&#58937;" d="M814.1-39L512 263.2 209.9-39c-33.4-33.4-87.5-33.4-120.8 0-33.4 33.4-33.4 87.5 0 120.8l302 302.2L89 686.1C55.7 719.5 55.7 773.6 89 807c33.4 33.4 87.5 33.4 120.8 0L512 504.9 814.1 807c33.4 33.4 87.5 33.4 120.8 0 33.4-33.4 33.4-87.5 0-120.8L632.8 384 935 81.9c33.4-33.4 33.4-87.5 0-120.8-33.4-33.4-87.5-33.4-120.9-0.1z"  horiz-adv-x="1024" />

    
    <glyph glyph-name="shanchu" unicode="&#59022;" d="M762.220089 714.786133H263.145244c-45.943467 0-83.182933-11.184356-83.182933-46.705777v-21.435734h665.429333v21.435734c0.011378 35.521422-37.228089 46.705778-83.171555 46.705777M687.138133 669.331911L670.913422 785.339733c-3.151644 22.664533-24.439467 41.176178-47.320178 41.176178H401.783467c-22.880711 0-44.157156-18.511644-47.354311-41.210311l-16.224712-116.0192c-3.163022-22.664533 12.970667-18.432 35.851378-18.432h277.253689c22.892089 0.022756 39.025778-4.221156 35.828622 18.477511z m-296.493511 23.529245l12.811378 91.682133h218.453333l12.811378-91.682133H390.644622zM776.0896 594.784711H249.287111c-30.492444 0-53.202489-24.860444-50.449067-55.227733l45.431467-499.484445c2.742044-30.378667 29.980444-55.227733 60.461511-55.227733h415.880534c30.492444 0 57.730844 24.860444 60.461511 55.227733l45.431466 499.484445c2.787556 30.378667-19.933867 55.227733-50.414933 55.227733zM401.783467 42.666667h-107.713423L258.161778 530.488889h143.610311V42.666667z m182.385777 0H440.490667V530.488889h143.678577V42.666667z m146.067912 0h-106.643912V530.488889h142.188089L730.237156 42.666667z"  horiz-adv-x="1024" />

    
    <glyph glyph-name="shanchu1" unicode="&#59004;" d="M725.333333-42.666667H298.666667c-72.533333 0-128 55.466667-128 128V554.666667c0 72.533333 55.466667 128 128 128h426.666666c72.533333 0 128-55.466667 128-128v-469.333334c0-72.533333-55.466667-128-128-128zM298.666667 597.333333c-25.6 0-42.666667-17.066667-42.666667-42.666666v-469.333334c0-25.6 17.066667-42.666667 42.666667-42.666666h426.666666c25.6 0 42.666667 17.066667 42.666667 42.666666V554.666667c0 25.6-17.066667 42.666667-42.666667 42.666666H298.666667zM85.333333 682.666667h853.333334c25.6 0 42.666667-17.066667 42.666666-42.666667s-17.066667-42.666667-42.666666-42.666667H85.333333c-25.6 0-42.666667 17.066667-42.666666 42.666667s17.066667 42.666667 42.666666 42.666667zM341.333333 853.333333h341.333334c25.6 0 42.666667-17.066667 42.666666-42.666666v-128c0-25.6-17.066667-42.666667-42.666666-42.666667H341.333333c-25.6 0-42.666667 17.066667-42.666666 42.666667V810.666667c0 25.6 17.066667 42.666667 42.666666 42.666666z m42.666667-85.333333v-85.333333h256V768H384zM426.666667 512c25.6 0 42.666667-17.066667 42.666666-42.666667v-298.666666c0-25.6-17.066667-42.666667-42.666666-42.666667s-42.666667 17.066667-42.666667 42.666667v298.666666c0 25.6 17.066667 42.666667 42.666667 42.666667zM597.333333 512c25.6 0 42.666667-17.066667 42.666667-42.666667v-298.666666c0-25.6-17.066667-42.666667-42.666667-42.666667s-42.666667 17.066667-42.666666 42.666667v298.666666c0 25.6 17.066667 42.666667 42.666666 42.666667z"  horiz-adv-x="1024" />

    
    <glyph glyph-name="bianji1" unicode="&#58992;" d="M744.87516859-34.10059481999997H203.04165179c-68.94312396 0-125.0364205 56.09330449-125.03642031 125.04069531v541.83493634c0 68.94454364 56.09330449 125.03784804 125.03642031 125.03784799h325.10182636c23.01570263 0 41.68070499-18.66500237 41.68070491-41.680705 0-23.01000806-18.66500237-41.6750105-41.68070491-41.67501049H203.04165179c-22.97724498 0-41.6750105-18.69776556-41.67500244-41.68070494v-541.83494419c0-22.9815119 18.69776556-41.67928527 41.67500244-41.67927753h541.8335168c22.9829394 0 41.68070499 18.69776556 41.68071284 41.67927753v250.07712354c0 23.01713014 18.66500237 41.68070499 41.68070496 41.68070495s41.68070499-18.66357485 41.68070499-41.68070495v-250.07712354c0-68.94881823-56.09330449-125.04212289-125.04212279-125.04211502z m0 0M494.86500674 255.73118008999995l38.93837263 14.73027741-117.89067029 117.89067025-14.72458303-38.92554795-0.02136614-0.05555713-42.25339761-111.68229774c-8.10877706-21.4415335 2.7936224-32.34250541 24.22803383-24.22946131l43.74494117 16.55091152 5.20403272 1.96878612 62.73190418 23.73511969 0.04273254 0.01709914z m-49.49886479 162.08863249l306.05360383 306.05359593 117.88496775-117.8906621-306.0479014-306.05360382-117.89067018 117.89066999z m475.16262055 357.25912592c-32.5590465 32.5590465-85.34159306 32.5590465-117.8906702 0l-21.73641751-21.73641744 117.8906703-117.89067016 21.73641741 21.73641748c32.54337483 32.55619926 32.54337483 85.33589835 0 117.89067012z m0 0"  horiz-adv-x="1024" />

    
    <glyph glyph-name="daohang" unicode="&#59276;" d="M953.397895 892.793263L23.498105 506.556632a37.268211 37.268211 0 0 1 0-68.877474l356.702316-148.48c9.216-3.799579 16.545684-11.129263 20.345263-20.345263l141.312-354.061474a37.322105 37.322105 0 0 1 68.985263 0L1002.010947 844.261053A37.241263 37.241263 0 0 1 953.397895 892.793263z"  horiz-adv-x="1024" />

    
    <glyph glyph-name="fenhong" unicode="&#58944;" d="M512.512 384l-0.512 455.168c-260.096 0-471.04-221.184-454.144-484.864 14.848-226.816 197.632-410.112 424.448-424.448 263.68-16.896 484.864 194.048 484.864 454.144h-454.656z m-12.8-399.872c-209.92 6.144-380.928 177.152-387.584 387.072C105.984 573.952 250.88 741.376 440.832 776.704c9.728 2.048 18.432-5.632 18.432-15.36l0.512-416.256c0-7.168 6.144-13.312 13.312-13.312l434.688 0.512c-27.648-199.68-199.168-354.304-408.064-348.16zM932.864 440.832h22.528c6.144 0 11.264 5.12 11.264 11.264-5.632 212.48-174.08 380.928-386.56 386.56-6.144 0-11.264-5.12-11.264-11.264V451.584c0-6.144 5.12-11.264 11.264-11.264h352.768zM613.376 496.64V776.192c0 7.168 6.656 12.288 13.824 10.752 143.872-30.208 258.048-144.384 288.256-288.256 1.536-7.168-3.584-13.824-10.752-13.824H624.64c-6.144 0.512-11.264 5.632-11.264 11.776z"  horiz-adv-x="1024" />

    
    <glyph glyph-name="xuanze" unicode="&#59152;" d="M551.35894-127.897612c-28.259065 0-56.415743 11.160283-78.019594 33.276073L32.252194 360.492758a116.517451 116.517451 0 0 0 0 160.851419 107.916866 107.916866 0 0 0 155.9368 0l363.169946-374.637392L1245.241861 862.603109a107.71209 107.71209 0 0 0 155.9368 0c43.002926-44.436357 43.002926-116.415063 0-160.749032L629.276145-94.723927a108.531193 108.531193 0 0 0-77.917205-33.276073z"  horiz-adv-x="1433" />

    
    <glyph glyph-name="pingjia" unicode="&#58914;" d="M748.9 96.7H267.6c-35.8 0-65 29.2-65 65V599c0 35.8 29.2 65 65 65h299c12.4 0 22.4-10 22.4-22.4s-10-22.4-22.4-22.4h-299c-11.1 0-20.2-9-20.2-20.2v-437.3c0-11.1 9-20.2 20.2-20.2h481.3c11.1 0 20.2 9 20.2 20.2V432.4c0 12.4 10 22.4 22.4 22.4 12.4 0 22.4-10 22.4-22.4v-270.7c0-35.9-29.2-65-65-65zM521.3 254.5L396.6 379.2l325.5 325.5c20.1 20.1 52.7 20.1 72.8 0l51.9-51.9c20.1-20.1 20.1-52.7 0-72.8L521.3 254.5zM460 379.2l61.2-61.2L815 611.8c2.6 2.6 2.6 6.8 0 9.4L763.3 673a6.64 6.64 0 0 1-9.4 0L460 379.2zM396 219.9c-9 0-17.5 3.5-23.9 10-7.5 7.5-11.1 17.9-9.7 28.5l0.7 3.3L395.5 374c3.4 11.9 15.8 18.8 27.8 15.3 11.9-3.4 18.8-15.9 15.3-27.8L412.1 270l91.7 26.5c11.9 3.5 24.3-3.4 27.8-15.3 3.4-11.9-3.4-24.3-15.3-27.8l-115.7-33.1c-1.6-0.3-3.1-0.4-4.6-0.4zM781.8 536.5c-5.7 0-11.5 2.2-15.8 6.6l-76.4 76.4c-8.8 8.7-8.8 22.9 0 31.7s22.9 8.8 31.7 0l76.4-76.4c8.8-8.7 8.8-22.9 0-31.7a22.5 22.5 0 0 0-15.9-6.6z"  horiz-adv-x="1024" />

    
    <glyph glyph-name="zuigaobutie" unicode="&#58939;" d="M901.632 506.88c20.48 0 38.4 17.92 38.4 38.4s-17.92 38.4-38.4 38.4c-19.968 0-37.376-17.408-37.888-37.888-0.512-20.48 17.408-38.912 37.888-38.912zM671.744 738.304c20.48 0.512 37.376 17.408 37.376 37.888 0.512 20.992-16.896 38.912-37.376 38.912s-37.888-17.408-37.888-38.4c0-21.504 16.896-38.912 37.888-38.4zM809.472 645.632c20.48-0.512 38.4 17.408 38.4 38.4s-17.408 38.4-38.4 38.4-37.888-17.92-37.376-38.912c0-20.992 16.896-37.888 37.376-37.888zM512-77.312c-253.952 0-460.8 206.848-460.8 460.8s206.848 460.8 460.8 460.8c16.896 0 30.72-13.824 30.72-30.72s-13.824-30.72-30.72-30.72c-220.16 0-399.36-179.2-399.36-399.36s179.2-399.36 399.36-399.36 399.36 179.2 399.36 399.36c0 16.896 13.824 30.72 30.72 30.72s30.72-13.824 30.72-30.72c0-253.952-206.848-460.8-460.8-460.8zM640.512 373.248c14.336 0 25.6 10.752 25.6 23.552s-11.776 23.552-25.6 23.552h-104.96l97.792 89.6c9.216 8.192 10.24 22.016 2.048 31.232l-2.048 2.048c-10.24 9.216-26.112 9.216-36.352 0L512 465.408 427.008 543.232c-10.24 9.216-26.112 9.216-36.352 0-9.216-8.192-10.24-22.016-2.048-31.232l2.048-2.048 97.792-89.6H383.488c-14.336 0-25.6-10.752-25.6-23.552s11.264-23.552 25.6-23.552H486.4v-23.552H383.488c-14.336 0-25.6-10.752-25.6-23.552s11.264-23.552 25.6-23.552H486.4v-68.096c0-9.728 11.776-17.92 25.6-17.92 14.336 0 25.6 8.192 25.6 17.92v68.096h102.912c14.336 0 25.6 10.752 25.6 23.552s-11.776 23.552-25.6 23.552H537.6v23.552h102.912z"  horiz-adv-x="1024" />

    
    <glyph glyph-name="shoucangdianjihou" unicode="&#58952;" d="M773.45792-109.42976c-14.40256 0-30.59712 4.13184-45.59872 11.63776l-214.29248 107.18208-215.61856-107.008c-13.65504-7.2704-29.2864-11.08992-45.22496-11.08992a96.16384 96.16384 0 0 0-57.5488 18.8416c-30.17728 22.64576-45.63968 61.8496-38.5024 97.56672l44.09856 228.77696L31.744 394.00448a104.05888 104.05888 0 0 0-26.28096 100.6592l0.33792 1.16224c12.288 36.82816 42.77248 62.63296 79.73376 67.584l234.83904 42.7008L425.7792 820.18816c16.93184 33.8944 51.36896 55.67488 87.78752 55.67488 37.9904 0 73.3184-22.59968 88.13056-56.28928l105.06752-213.4016 234.87488-41.0624A95.67232 95.67232 0 0 0 1019.904 496.73728a98.9696 98.9696 0 0 0-24.4736-101.00224l-0.57856-0.57856-168.5504-158.72 42.5984-229.18656c6.8608-36.64384-7.71584-73.6768-38.06208-96.74752a90.45504 90.45504 0 0 0-57.37984-19.93216z"  horiz-adv-x="1024" />

    
    <glyph glyph-name="shoucang1" unicode="&#58940;" d="M248.631216-128c-19.957961 0-39.895843 8.031373-55.858196 20.078431-27.90902 24.094118-43.871373 64.25098-39.875765 100.392157L196.768627 229.396078l-167.534431 160.627451C1.325176 418.133333-2.69051 462.305882 1.325176 494.431373c11.946667 44.172549 43.871373 72.282353 79.771608 76.298039L312.460549 614.901961l103.705098 224.878431C440.099137 875.921569 472.003765 896 511.899608 896c39.895843 0 71.800471-20.078431 91.758431-56.219608L707.363137 614.901961l231.363765-40.156863c35.900235-8.031373 67.804863-36.141176 79.771608-72.282353 11.966745-36.141176 3.995608-72.282353-19.937883-104.407843l-171.530039-168.658824L866.926431-7.529412c3.975529-40.156863-7.991216-76.298039-39.895843-100.392157-19.937882-12.047059-35.900235-20.078431-59.833725-20.078431-19.937882 0-39.895843 8.031373-43.871373 12.047059l-211.425882 112.439216-215.401412-108.42353c-15.962353-12.047059-31.924706-16.062745-47.86698-16.062745zM476.300549 822.231843L353.039059 566.512941 81.879843 512.903529c-24.656314-4.136157-26.101961-18.933961-30.197961-31.322353 0-12.368314-2.670431-38.811608 9.637647-51.2l197.230432-189.741176-53.408628-268.107294c-4.116078-16.504471 0-26.563765 12.308079-38.952157 12.328157-8.232157 32.868392-14.657255 45.196549-6.425098l246.52298 127.879529 246.502902-127.879529c4.116078-4.116078 12.328157-4.116078 20.560314-4.116078 8.212078 0 13.291922 6.164078 21.483921 14.416313 12.348235 8.232157 19.596549 22.688627 19.596549 39.193098L768 253.008314l199.900863 184.661333c8.232157 12.388392 9.436863 29.394824 5.320784 49.995294-4.116078 16.524549-20.359529 29.555451-32.687686 33.691608L669.414902 578.881255 546.153412 834.620235c-4.116078 4.116078-15.62102 7.228235-32.065255 7.228236-16.424157 0-29.575529-3.112157-37.787608-19.616628z"  horiz-adv-x="1024" />

    
    <glyph glyph-name="kaifazhong" unicode="&#58903;" d="M522.32325227 379.67089387m-500.51122027 0a500.5112192 500.5112192 0 1 1 1001.02243947 0 500.5112192 500.5112192 0 1 1-1001.02243947 0ZM689.82634133 109.26829226999996h57.2773984v-73.26178774h-57.2773984zM882.97105707 109.26829226999996h-329.34504107c-19.98048747 0-36.29788587 16.3173984-36.29788587 36.29788693v230.4416256c0 19.98048747 16.3173984 36.29788587 36.29788587 36.29788587h329.34504107c19.98048747 0 36.29788587-16.3173984 36.29788586-36.29788587v-230.4416256c0-20.31349547-15.9843904-36.29788587-36.29788586-36.29788693zM882.97105707 105.93821119999996h-329.34504107c-21.97853653 0-39.627968 17.6494304-39.62796693 39.627968v230.4416256c0 21.97853653 17.6494304 39.627968 39.62796693 39.627968h329.34504107c21.97853653 0 39.627968-17.6494304 39.62796693-39.627968v-230.4416256c0-21.97853653-17.6494304-39.627968-39.62796693-39.627968z m-329.01203307 302.7043904c-18.31544747 0-32.9678048-14.65235733-32.9678048-32.9678048v-230.4416256c0-18.31544747 14.65235733-32.9678048 32.9678048-32.96780587h329.34504107c18.31544747 0 32.9678048 14.65235733 32.9678048 32.96780587v230.4416256c0 18.31544747-14.65235733 32.9678048-32.9678048 32.9678048h-329.34504107zM870.98276373 141.23707306999995h-305.0354464c-6.9931712 0-12.32130133 5.66113813-12.32130133 12.32130133v211.12715413c0 6.9931712 5.66113813 12.32130133 12.32130133 12.32130027h305.0354464c6.9931712 0 12.32130133-5.66113813 12.32130134-12.32130027v-211.12715413c0.333008-6.66016213-5.32813013-12.32130133-12.32130134-12.32130133zM870.98276373 137.90699199999995h-305.3684544c-8.6582112 0-15.6513824 6.9931712-15.6513824 15.6513824v211.12715413c0 8.6582112 6.9931712 15.6513824 15.6513824 15.6513824h305.3684544c8.6582112 0 15.6513824-6.9931712 15.6513824-15.6513824v-211.12715413c0.333008-8.3252032-6.9931712-15.6513824-15.6513824-15.6513824zM565.94731733 374.00975573000005c-4.99512213 0-8.9912192-3.99609707-8.99122026-8.9912192v-211.12715413c0-4.99512213 3.99609707-8.9912192 8.99122026-8.99122027h305.36845547c4.99512213 0 8.9912192 3.99609707 8.9912192 8.99122027v211.12715413c0 4.99512213-3.99609707 8.9912192-8.9912192 8.9912192h-305.36845547zM675.84 202.51056960000005h-91.91024427v146.19056853h91.91024427v-146.19056853z m-81.586992 9.9902432h71.92975573v126.21008107h-71.92975573v-126.21008107zM704.47869867 301.413984h144.52552853v-13.32032533h-144.52552853zM704.47869867 262.45203200000003h144.52552853v-13.32032427h-144.52552853zM704.47869867 215.83089386999995h144.52552853v-13.32032427h-144.52552853zM703.47967467 346.70308907000003h144.52552853v-13.32032534h-144.52552853zM880.64 358.69138239999995h-288.052032V374.00975573000005h278.06178773c5.66113813 0 9.99024427-4.32910613 9.99024427-9.9902432v-5.32813013zM565.61430933 42.33365866999998c-17.98243947 0-32.6347968-14.65235733-32.6347968-32.6347968v-18.98146347h304.7024384c17.6494304 14.31934933 34.63284587 29.97073173 50.28422827 46.95414613-4.99512213 2.99707307-10.65626027 4.66211413-16.6504064 4.66211414h-305.70146347zM522.32325227-120.84032533000004c78.92292693 0 153.84975573 18.31544747 220.4513824 50.95024426-25.6416256 123.546016-135.53430933 217.45430933-266.73951254 217.45430827-113.5557728 0-211.46016213-70.59772373-252.08715413-169.83414613 83.58504107-61.93951253 186.81756053-98.5704064 298.37528427-98.5704064zM444.39934933 230.48325226999998h72.9287808v-141.86146347h-72.9287808zM476.36813013 52.65691092999998c56.6113824 0 109.22666667 17.6494304 152.85073174 47.28715414-43.62406507 29.97073173-96.57235733 47.62016213-153.18373974 47.62016213s-109.22666667-17.6494304-152.85073173-47.28715413c43.62406507-30.30373973 96.57235733-47.62016213 153.18373973-47.62016214zM610.9034144 319.72943039999996H588.59186987c-4.99512213 0-8.9912192 3.99609707-8.9912192 8.99122027v47.95317013c0 4.99512213 3.99609707 8.9912192 8.9912192 8.99122027h21.97853653c4.99512213 0 8.9912192-3.99609707 8.9912192-8.99122027v-47.95317013c0.333008-4.99512213-3.66308907-8.9912192-8.6582112-8.99122027zM610.9034144 318.0643904H588.59186987c-5.99414613 0-10.65626027 4.99512213-10.65626027 10.65626027v47.95317013c0 5.99414613 4.99512213 10.65626027 10.65626027 10.65626027h21.97853653c5.99414613 0 10.65626027-4.99512213 10.65626027-10.65626027v-47.95317013c0.333008-5.99414613-4.66211413-10.65626027-10.32325227-10.65626027zM588.59186987 384c-3.99609707 0-7.3261792-3.33008107-7.3261792-7.3261792v-47.95317013c0-3.99609707 3.33008107-7.3261792 7.3261792-7.3261792h21.97853653c3.99609707 0 7.3261792 3.33008107 7.3261792 7.3261792v47.95317013c0 3.99609707-3.33008107 7.3261792-7.3261792 7.3261792H588.59186987zM533.97853653 187.85821120000003h-97.5713824c-29.97073173 0-54.61333333 24.6426016-54.61333333 54.61333333v237.4347968c0 29.97073173 24.6426016 54.61333333 54.61333333 54.61333334h97.5713824c29.97073173 0 54.61333333-24.6426016 54.61333334-54.61333334v-237.4347968c0-29.97073173-24.6426016-54.61333333-54.61333334-54.61333333zM616.56455253 371.34569066999995h-59.94146346c-2.33105707 0-4.32910613 1.99804907-4.32910507 4.32910613v10.98926827c0 2.33105707 1.99804907 4.32910613 4.32910507 4.32910613h59.94146346c2.33105707 0 4.32910613-1.99804907 4.32910614-4.32910613v-10.98926827c0-2.33105707-1.99804907-4.32910613-4.32910614-4.32910613zM585.5947968 465.586992s102.56650453-2.66406507 74.9268288 180.1573984c0 0 12.65430933-35.96487787-184.81951147-35.96487787-82.586016 0-109.89268267-49.9512192-114.8878048-80.25496 0 0-52.61528427-27.63967467-34.96585386-80.25495893 2.66406507-28.97170773-8.6582112-55.61235733 27.63967466-94.24130133 0 0-1.332032-47.28715413 14.98536534-56.94438934s139.8634144-15.3183744 159.84390293 5.66113814c11.32227627 9.65723627 11.32227627 24.9756096 4.99512213 40.29398293 9.65723627 10.65626027 44.95609707 48.2861792 52.28227627 121.547968zM588.59186987 445.93951253s104.89756053-2.66406507 76.59186986 166.17105707c0 0 12.98731733-33.3008128-189.1486176-33.30081387-84.25105707 0-112.55674773-45.95512213-117.55186986-74.2608128 0 0-53.61430933-25.6416256-35.63186987-74.2608128 2.66406507-26.97365867-8.9912192-50.95024427 27.97268267-86.91512213 0 0-1.332032-43.29105707 15.3183744-52.28227627 16.6504064-8.9912192 143.19349547-13.98634133 163.50699093 4.99512214 11.65528427 8.9912192 11.65528427 22.97756053 4.99512213 36.96390186 10.65626027 10.65626027 46.28813013 45.28910613 53.94731734 112.8897568zM522.98926827-121.17333332999999c79.25593493 0 153.84975573 18.31544747 220.4513824 50.95024426-12.65430933 62.27252053-47.28715413 117.21886187-94.90731734 156.1808128-46.95414613-38.29593493-106.8956096-61.60650453-171.8321952-61.60650453s-124.87804907 22.97756053-171.8321952 61.60650453c-34.96585387-28.63869867-62.93853653-65.9356096-80.25495893-108.56065066 83.252032-61.93951253 186.48455253-98.5704064 298.37528427-98.5704064zM263.57593493 265.78211412999997c0 0.333008 0 0.333008 0 0-11.98829227-9.3242272-71.59674773-46.95414613-29.97073173-66.60162666 33.6338208-15.6513824 16.3173984 48.9521952 29.97073173 66.60162666zM302.87089387 331.38471573000004c0.333008 0 0.666016 0.666016 0 0.666016-16.3173984 4.32910613-82.586016 19.98048747-62.60552854-15.6513824 16.6504064-30.30373973 36.63089387 14.98536533 62.60552854 14.9853664zM692.8234144 465.586992c-0.333008 0-0.666016 0.333008-0.333008 0.666016 13.65333333 9.99024427 69.59869867 48.6191872 64.2705696 8.3252032-4.66211413-34.63284587-39.627968 0.666016-63.9375616-8.9912192zM242.9294304 671.386016c0 19.64747947 10.32325227 37.29691093 25.64162667 47.2871552-4.66211413 1.332032-9.3242272 1.99804907-14.31934934 1.998048-31.30276373 0-56.6113824-25.3086176-56.6113824-56.61138133s25.3086176-56.6113824 56.6113824-56.6113824c11.32227627 0 21.97853653 3.33008107 30.96975574 9.3242272-24.6426016 6.66016213-42.292032 28.63869867-42.29203307 54.61333333zM362.14634133 670.386992m-3.33008106 0a3.33008107 3.33008107 0 1 1 6.66016213 0 3.33008107 3.33008107 0 1 1-6.66016213 0ZM448.72845547 633.75609707m-3.66309014 0a3.66308907 3.66308907 0 1 1 7.3261792 0 3.66308907 3.66308907 0 1 1-7.3261792 0ZM145.69105707 517.20325227m-2.99707307 0a2.99707307 2.99707307 0 1 1 5.99414613 0 2.99707307 2.99707307 0 1 1-5.99414613 0ZM432.07804907 763.62926827m-3.99609814 0a3.99609707 3.99609707 0 1 1 7.9921952 0 3.99609707 3.99609707 0 1 1-7.9921952 0ZM601.2561696 359.7869792l10.7894624 11.33892693 2.4109792-2.2977568-10.78946347-11.3355968zM603.63384747 342.80023467l10.78946346 11.33892586 2.41097814-2.2944256-10.78946347-11.33892693zM561.2852032 349.70016212999997a30.96975573 22.977560529999998 90 1 1 45.95512213 0 30.96975573 22.977560529999998 90 1 1-45.95512213 0Z"  horiz-adv-x="1036" />

    
    <glyph glyph-name="dianhua1" unicode="&#58928;" d="M512.009029 889.58973c-279.4336 0-505.580701-226.706872-505.580702-505.598759 0-279.4336 226.688815-505.580701 505.580702-505.580701 279.4336 0 505.580701 226.706872 505.580701 505.580701 0.541713 278.891887-226.165159 505.598759-505.580701 505.598759z m109.769101-798.268211c-47.815197-20.801777-197.923857 61.881677-274.44984 236.692447-76.002328 174.6302-21.993546 314.735227 25.623023 335.031406 41.314641 17.966813 97.436104 55.32695 125.135693-33.026433 27.681532-88.353383-6.211642-96.641591-48.952794-115.25846-29.721984-12.928883-6.265813-84.615564 21.794917-149.097463 28.584387-64.698584 64.554127-130.498651 94.258055-117.551711 42.759209 18.598811 71.903366 37.757393 117.714225-42.705038 46.316458-80.697173-20.025322-96.641591-61.123279-114.084748z"  horiz-adv-x="1024" />

    
    </font>
</defs>
</svg>
